999
DXF data, created by potrace 1.16, written by Peter Selinger 2001-2019
  0
SECTION
  2
HEADER
  9
$ACADVER
  1
AC1006
  9
$EXTMIN
 10
0.000000
 20
0.000000
 30
0.000000
  9
$EXTMAX
 10
1187.000000
 20
1536.000000
 30
0.000000
  0
ENDSEC
  0
SECTION
  2
ENTITIES
  0
POLYLINE
  8
0
 66
1
 70
1
  0
VERTEX
  8
0
 10
437.000000
 20
1352.923960
 42
0.005185
  0
VERTEX
  8
0
 10
429.207331
 20
1351.855754
 42
0.003078
  0
VERTEX
  8
0
 10
419.941628
 20
1350.429249
 42
0.002720
  0
VERTEX
  8
0
 10
411.285166
 20
1348.993592
 42
0.013868
  0
VERTEX
  8
0
 10
406.500000
 20
1348.035913
 42
0.006594
  0
VERTEX
  8
0
 10
390.995930
 20
1344.267329
 42
0.012207
  0
VERTEX
  8
0
 10
378.529172
 20
1340.735763
 42
0.013788
  0
VERTEX
  8
0
 10
367.336574
 20
1336.926599
 42
0.012002
  0
VERTEX
  8
0
 10
355.834776
 20
1332.337839
 42
0.021674
  0
VERTEX
  8
0
 10
333.458496
 20
1321.612837
 42
0.026403
  0
VERTEX
  8
0
 10
313.572098
 20
1309.608725
 42
0.026262
  0
VERTEX
  8
0
 10
294.974971
 20
1295.518207
 42
0.021048
  0
VERTEX
  8
0
 10
276.471467
 20
1278.520976
 42
0.028302
  0
VERTEX
  8
0
 10
255.539712
 20
1255.090077
 42
0.028453
  0
VERTEX
  8
0
 10
237.428048
 20
1229.485201
 42
0.027327
  0
VERTEX
  8
0
 10
221.723105
 20
1201.016358
 42
0.022237
  0
VERTEX
  8
0
 10
207.997525
 20
1169.000000
 42
-0.000259
  0
VERTEX
  8
0
 10
205.962614
 20
1163.611075
 42
-0.000319
  0
VERTEX
  8
0
 10
204.057839
 20
1158.584375
 42
-0.000263
  0
VERTEX
  8
0
 10
202.452026
 20
1154.361483
 42
-0.002326
  0
VERTEX
  8
0
 10
201.733117
 20
1152.500000
 42
-0.039757
  0
VERTEX
  8
0
 10
200.849692
 20
1150.683615
 42
-0.004026
  0
VERTEX
  8
0
 10
198.378227
 20
1146.562500
 42
-0.005022
  0
VERTEX
  8
0
 10
195.339685
 20
1141.697605
 42
-0.003981
  0
VERTEX
  8
0
 10
191.961756
 20
1136.500000
 42
0.012567
  0
VERTEX
  8
0
 10
177.956952
 20
1114.118931
 42
0.010602
  0
VERTEX
  8
0
 10
164.247418
 20
1089.769652
 42
0.010618
  0
VERTEX
  8
0
 10
152.757914
 20
1067.171051
 42
0.031999
  0
VERTEX
  8
0
 10
146.265675
 20
1051.156366
 42
-0.007235
  0
VERTEX
  8
0
 10
145.618191
 20
1049.300250
 42
-0.008682
  0
VERTEX
  8
0
 10
144.953678
 20
1047.574057
 42
-0.007617
  0
VERTEX
  8
0
 10
144.348168
 20
1046.142178
 42
-0.055805
  0
VERTEX
  8
0
 10
143.974661
 20
1045.500000
 42
0.082050
  0
VERTEX
  8
0
 10
142.702412
 20
1043.023439
 42
0.001622
  0
VERTEX
  8
0
 10
138.386348
 20
1029.436597
 42
0.004254
  0
VERTEX
  8
0
 10
134.401105
 20
1016.360584
 42
0.013397
  0
VERTEX
  8
0
 10
132.038947
 20
1007.500000
 42
-0.000727
  0
VERTEX
  8
0
 10
131.151758
 20
1003.797656
 42
-0.000737
  0
VERTEX
  8
0
 10
130.258028
 20
1000.115625
 42
-0.000716
  0
VERTEX
  8
0
 10
129.471191
 20
996.914599
 42
-0.003029
  0
VERTEX
  8
0
 10
128.985333
 20
995.000000
 42
0.012199
  0
VERTEX
  8
0
 10
128.515144
 20
992.993493
 42
0.002289
  0
VERTEX
  8
0
 10
127.761169
 20
989.296875
 42
0.002448
  0
VERTEX
  8
0
 10
126.920870
 20
984.968014
 42
0.002238
  0
VERTEX
  8
0
 10
126.096931
 20
980.500000
 42
-0.000351
  0
VERTEX
  8
0
 10
125.297017
 20
976.068560
 42
-0.000407
  0
VERTEX
  8
0
 10
124.528928
 20
971.850000
 42
-0.000362
  0
VERTEX
  8
0
 10
123.872994
 20
968.278593
 42
-0.002409
  0
VERTEX
  8
0
 10
123.536135
 20
966.500000
 42
0.024406
  0
VERTEX
  8
0
 10
121.430188
 20
951.893769
 42
0.015636
  0
VERTEX
  8
0
 10
120.348978
 20
934.787907
 42
0.015531
  0
VERTEX
  8
0
 10
120.335185
 20
917.421596
 42
0.021928
  0
VERTEX
  8
0
 10
121.480701
 20
901.993872
 42
0.037474
  0
VERTEX
  8
0
 10
128.726602
 20
864.893204
 42
0.052617
  0
VERTEX
  8
0
 10
141.010794
 20
833.494506
 42
0.051176
  0
VERTEX
  8
0
 10
159.876378
 20
804.719913
 42
0.033041
  0
VERTEX
  8
0
 10
187.023663
 20
775.500000
 42
-0.000745
  0
VERTEX
  8
0
 10
189.941714
 20
772.739922
 42
-0.001011
  0
VERTEX
  8
0
 10
192.567606
 20
770.238659
 42
-0.000670
  0
VERTEX
  8
0
 10
194.765466
 20
768.130978
 42
-0.011348
  0
VERTEX
  8
0
 10
195.473211
 20
767.418840
 42
0.042466
  0
VERTEX
  8
0
 10
198.239108
 20
764.961935
 42
0.003548
  0
VERTEX
  8
0
 10
205.961525
 20
759.280056
 42
0.005146
  0
VERTEX
  8
0
 10
213.896525
 20
753.651789
 42
0.013854
  0
VERTEX
  8
0
 10
219.685293
 20
749.867939
 42
0.014844
  0
VERTEX
  8
0
 10
229.867157
 20
744.017239
 42
0.020551
  0
VERTEX
  8
0
 10
239.346013
 20
739.429454
 42
0.019619
  0
VERTEX
  8
0
 10
249.503715
 20
735.484514
 42
0.011900
  0
VERTEX
  8
0
 10
261.793419
 20
731.582854
 42
0.012473
  0
VERTEX
  8
0
 10
271.742945
 20
728.950255
 42
0.018971
  0
VERTEX
  8
0
 10
280.512281
 20
727.211070
 42
0.018660
  0
VERTEX
  8
0
 10
289.494073
 20
726.123219
 42
0.011548
  0
VERTEX
  8
0
 10
300.107281
 20
725.484395
 42
0.030382
  0
VERTEX
  8
0
 10
317.071996
 20
725.886885
 42
0.044225
  0
VERTEX
  8
0
 10
331.804187
 20
728.459121
 42
0.045131
  0
VERTEX
  8
0
 10
345.631433
 20
733.529205
 42
0.033467
  0
VERTEX
  8
0
 10
359.855239
 20
741.458574
 42
0.036345
  0
VERTEX
  8
0
 10
369.391575
 20
748.680020
 42
0.040968
  0
VERTEX
  8
0
 10
377.375707
 20
756.944938
 42
0.038985
  0
VERTEX
  8
0
 10
384.212111
 20
766.761835
 42
0.028056
  0
VERTEX
  8
0
 10
390.313690
 20
778.647584
 42
0.000000
  0
VERTEX
  8
0
 10
394.691958
 20
788.500000
 42
0.000000
  0
VERTEX
  8
0
 10
399.595979
 20
788.375818
 42
-0.062327
  0
VERTEX
  8
0
 10
407.463675
 20
787.188265
 42
-0.006191
  0
VERTEX
  8
0
 10
425.798007
 20
781.783206
 42
-0.008550
  0
VERTEX
  8
0
 10
444.887035
 20
775.538435
 42
-0.016188
  0
VERTEX
  8
0
 10
460.000000
 20
769.752399
 42
-0.010109
  0
VERTEX
  8
0
 10
471.219310
 20
764.765996
 42
-0.015999
  0
VERTEX
  8
0
 10
480.598456
 20
759.996526
 42
-0.018669
  0
VERTEX
  8
0
 10
488.345462
 20
755.355201
 42
-0.029644
  0
VERTEX
  8
0
 10
494.561880
 20
750.761795
 42
-0.046452
  0
VERTEX
  8
0
 10
502.085513
 20
743.191709
 42
-0.046932
  0
VERTEX
  8
0
 10
508.053210
 20
734.387528
 42
-0.050674
  0
VERTEX
  8
0
 10
511.836411
 20
725.455119
 42
-0.089701
  0
VERTEX
  8
0
 10
512.794845
 20
717.536191
 42
0.000000
  0
VERTEX
  8
0
 10
512.500000
 20
712.500000
 42
0.000000
  0
VERTEX
  8
0
 10
506.141093
 20
711.648225
 42
0.019515
  0
VERTEX
  8
0
 10
502.407522
 20
710.998943
 42
0.062142
  0
VERTEX
  8
0
 10
500.021249
 20
710.167347
 42
0.059816
  0
VERTEX
  8
0
 10
497.864282
 20
708.757420
 42
0.017144
  0
VERTEX
  8
0
 10
494.891093
 20
706.082063
 42
0.012977
  0
VERTEX
  8
0
 10
491.965386
 20
703.111794
 42
0.073865
  0
VERTEX
  8
0
 10
490.708846
 20
701.292443
 42
0.090200
  0
VERTEX
  8
0
 10
490.156270
 20
699.349230
 42
0.024289
  0
VERTEX
  8
0
 10
490.000000
 20
696.134178
 42
0.045457
  0
VERTEX
  8
0
 10
490.453564
 20
691.155495
 42
0.094512
  0
VERTEX
  8
0
 10
491.858657
 20
687.534613
 42
0.096745
  0
VERTEX
  8
0
 10
494.472140
 20
684.737755
 42
0.049304
  0
VERTEX
  8
0
 10
498.643328
 20
682.305752
 42
-0.016125
  0
VERTEX
  8
0
 10
500.789383
 20
681.238263
 42
-0.020655
  0
VERTEX
  8
0
 10
502.687315
 20
680.113108
 42
-0.019022
  0
VERTEX
  8
0
 10
504.169469
 20
679.067294
 42
-0.138850
  0
VERTEX
  8
0
 10
504.685185
 20
678.378012
 42
-0.157852
  0
VERTEX
  8
0
 10
504.784015
 20
676.525085
 42
-0.004334
  0
VERTEX
  8
0
 10
502.613637
 20
668.637010
 42
-0.006356
  0
VERTEX
  8
0
 10
500.344641
 20
661.030223
 42
-0.088525
  0
VERTEX
  8
0
 10
499.030001
 20
658.500000
 42
0.056790
  0
VERTEX
  8
0
 10
498.656496
 20
657.880158
 42
0.009766
  0
VERTEX
  8
0
 10
498.109260
 20
656.618750
 42
0.010526
  0
VERTEX
  8
0
 10
497.524219
 20
655.104735
 42
0.009230
  0
VERTEX
  8
0
 10
496.975935
 20
653.500000
 42
-0.016727
  0
VERTEX
  8
0
 10
496.101917
 20
651.061968
 42
-0.001945
  0
VERTEX
  8
0
 10
493.943050
 20
645.681250
 42
-0.002335
  0
VERTEX
  8
0
 10
491.320049
 20
639.302282
 42
-0.001906
  0
VERTEX
  8
0
 10
488.455284
 20
632.500000
 42
0.001555
  0
VERTEX
  8
0
 10
485.034318
 20
624.392974
 42
0.000729
  0
VERTEX
  8
0
 10
480.656384
 20
613.884375
 42
0.000722
  0
VERTEX
  8
0
 10
476.099502
 20
602.856167
 42
0.001015
  0
VERTEX
  8
0
 10
472.066943
 20
593.000000
 42
-0.000381
  0
VERTEX
  8
0
 10
468.420295
 20
584.054716
 42
-0.000481
  0
VERTEX
  8
0
 10
465.033435
 20
575.787500
 42
-0.000380
  0
VERTEX
  8
0
 10
462.180306
 20
568.857149
 42
-0.003894
  0
VERTEX
  8
0
 10
460.975395
 20
566.000000
 42
0.005375
  0
VERTEX
  8
0
 10
460.050008
 20
563.787390
 42
0.002203
  0
VERTEX
  8
0
 10
458.839682
 20
560.765625
 42
0.002180
  0
VERTEX
  8
0
 10
457.568511
 20
557.509537
 42
0.002791
  0
VERTEX
  8
0
 10
456.427939
 20
554.500000
 42
-0.001391
  0
VERTEX
  8
0
 10
446.849275
 20
529.010373
 42
-0.014481
  0
VERTEX
  8
0
 10
442.583104
 20
518.667151
 42
-0.033062
  0
VERTEX
  8
0
 10
439.086051
 20
512.051423
 42
-0.027324
  0
VERTEX
  8
0
 10
434.536357
 20
505.500000
 42
0.029804
  0
VERTEX
  8
0
 10
430.186782
 20
499.170025
 42
0.020807
  0
VERTEX
  8
0
 10
426.026271
 20
491.569533
 42
0.020987
  0
VERTEX
  8
0
 10
422.694923
 20
484.054670
 42
0.048252
  0
VERTEX
  8
0
 10
420.993772
 20
478.113510
 42
0.026827
  0
VERTEX
  8
0
 10
420.228216
 20
472.202712
 42
0.023949
  0
VERTEX
  8
0
 10
420.059403
 20
466.014432
 42
0.024901
  0
VERTEX
  8
0
 10
420.469272
 20
460.202611
 42
0.043060
  0
VERTEX
  8
0
 10
421.460763
 20
455.464116
 42
-0.035722
  0
VERTEX
  8
0
 10
422.312750
 20
451.670535
 42
-0.170741
  0
VERTEX
  8
0
 10
421.902700
 20
449.523509
 42
-0.209051
  0
VERTEX
  8
0
 10
420.312670
 20
448.360055
 42
-0.056061
  0
VERTEX
  8
0
 10
417.127555
 20
448.016241
 42
0.050800
  0
VERTEX
  8
0
 10
407.701642
 20
447.098715
 42
0.006296
  0
VERTEX
  8
0
 10
387.512662
 20
442.771544
 42
0.007952
  0
VERTEX
  8
0
 10
366.990660
 20
437.757413
 42
0.021525
  0
VERTEX
  8
0
 10
352.667867
 20
433.349108
 42
0.027217
  0
VERTEX
  8
0
 10
338.318944
 20
427.349265
 42
0.039656
  0
VERTEX
  8
0
 10
326.493524
 20
420.424724
 42
0.046798
  0
VERTEX
  8
0
 10
317.969466
 20
413.207968
 42
0.123238
  0
VERTEX
  8
0
 10
313.955675
 20
406.349527
 42
0.057993
  0
VERTEX
  8
0
 10
313.082194
 20
401.211523
 42
0.079277
  0
VERTEX
  8
0
 10
313.576570
 20
396.551157
 42
0.077587
  0
VERTEX
  8
0
 10
315.512195
 20
392.202422
 42
0.052990
  0
VERTEX
  8
0
 10
318.917318
 20
387.987444
 42
0.058860
  0
VERTEX
  8
0
 10
329.390008
 20
379.727615
 42
0.033895
  0
VERTEX
  8
0
 10
343.638967
 20
372.264761
 42
0.033051
  0
VERTEX
  8
0
 10
359.412162
 20
366.531735
 42
0.042117
  0
VERTEX
  8
0
 10
374.580314
 20
363.482922
 42
-0.005728
  0
VERTEX
  8
0
 10
376.589193
 20
363.229213
 42
-0.006034
  0
VERTEX
  8
0
 10
378.557084
 20
362.933503
 42
-0.005795
  0
VERTEX
  8
0
 10
380.247364
 20
362.638465
 42
-0.026915
  0
VERTEX
  8
0
 10
381.209758
 20
362.404770
 42
0.107146
  0
VERTEX
  8
0
 10
387.230088
 20
361.930868
 42
0.010295
  0
VERTEX
  8
0
 10
401.832333
 20
364.220169
 42
0.014064
  0
VERTEX
  8
0
 10
416.691304
 20
367.297657
 42
0.035302
  0
VERTEX
  8
0
 10
427.246946
 20
370.596778
 42
-0.009521
  0
VERTEX
  8
0
 10
429.733051
 20
371.516864
 42
-0.011059
  0
VERTEX
  8
0
 10
432.131983
 20
372.294053
 42
-0.010142
  0
VERTEX
  8
0
 10
434.182651
 20
372.863585
 42
-0.062737
  0
VERTEX
  8
0
 10
435.265570
 20
373.000000
 42
-0.113304
  0
VERTEX
  8
0
 10
436.319221
 20
372.758130
 42
-0.016745
  0
VERTEX
  8
0
 10
438.264550
 20
371.733528
 42
-0.018158
  0
VERTEX
  8
0
 10
440.515256
 20
370.339391
 42
-0.014722
  0
VERTEX
  8
0
 10
442.825956
 20
368.688604
 42
0.011159
  0
VERTEX
  8
0
 10
448.214656
 20
364.780588
 42
0.022533
  0
VERTEX
  8
0
 10
452.657226
 20
361.994833
 42
0.020804
  0
VERTEX
  8
0
 10
457.554438
 20
359.486131
 42
0.008155
  0
VERTEX
  8
0
 10
464.500000
 20
356.421805
 42
-0.006108
  0
VERTEX
  8
0
 10
472.051755
 20
353.126894
 42
-0.041073
  0
VERTEX
  8
0
 10
475.625656
 20
351.147801
 42
-0.095312
  0
VERTEX
  8
0
 10
477.379876
 20
349.419767
 42
-0.151869
  0
VERTEX
  8
0
 10
478.000000
 20
347.425209
 42
-0.076129
  0
VERTEX
  8
0
 10
477.477276
 20
344.011946
 42
-0.001405
  0
VERTEX
  8
0
 10
471.960426
 20
326.594095
 42
-0.001222
  0
VERTEX
  8
0
 10
466.300505
 20
309.045398
 42
-0.089580
  0
VERTEX
  8
0
 10
464.878946
 20
306.400164
 42
-0.185221
  0
VERTEX
  8
0
 10
464.083756
 20
305.931359
 42
-0.007535
  0
VERTEX
  8
0
 10
460.731253
 20
305.420080
 42
-0.012139
  0
VERTEX
  8
0
 10
456.625157
 20
304.958290
 42
-0.007816
  0
VERTEX
  8
0
 10
451.847366
 20
304.613279
 42
0.036718
  0
VERTEX
  8
0
 10
427.249133
 20
301.400929
 42
0.041535
  0
VERTEX
  8
0
 10
404.415048
 20
294.679253
 42
0.044363
  0
VERTEX
  8
0
 10
384.420766
 20
284.823473
 42
0.057357
  0
VERTEX
  8
0
 10
368.286626
 20
272.269773
 42
0.038275
  0
VERTEX
  8
0
 10
358.794872
 20
261.413960
 42
0.055989
  0
VERTEX
  8
0
 10
352.382342
 20
250.471687
 42
0.058326
  0
VERTEX
  8
0
 10
348.728630
 20
238.731201
 42
0.046330
  0
VERTEX
  8
0
 10
347.500000
 20
225.500000
 42
0.006105
  0
VERTEX
  8
0
 10
347.580570
 20
218.901286
 42
0.036718
  0
VERTEX
  8
0
 10
347.915416
 20
215.489162
 42
0.058748
  0
VERTEX
  8
0
 10
348.684256
 20
212.899355
 42
0.031390
  0
VERTEX
  8
0
 10
350.194662
 20
209.916357
 42
0.042417
  0
VERTEX
  8
0
 10
353.259656
 20
205.588851
 42
0.035145
  0
VERTEX
  8
0
 10
357.196844
 20
201.538979
 42
0.035012
  0
VERTEX
  8
0
 10
361.681017
 20
198.064183
 42
0.041116
  0
VERTEX
  8
0
 10
366.379989
 20
195.453835
 42
0.030712
  0
VERTEX
  8
0
 10
372.209507
 20
193.236423
 42
0.011080
  0
VERTEX
  8
0
 10
380.735536
 20
190.785539
 42
0.010765
  0
VERTEX
  8
0
 10
390.388783
 20
188.461837
 42
0.011225
  0
VERTEX
  8
0
 10
400.000000
 20
186.591031
 42
0.002445
  0
VERTEX
  8
0
 10
418.428205
 20
183.524256
 42
0.002232
  0
VERTEX
  8
0
 10
437.454638
 20
180.540523
 42
0.002242
  0
VERTEX
  8
0
 10
454.509121
 20
178.022167
 42
0.007028
  0
VERTEX
  8
0
 10
466.000000
 20
176.542484
 42
-0.001935
  0
VERTEX
  8
0
 10
471.619287
 20
175.876999
 42
-0.001829
  0
VERTEX
  8
0
 10
477.339700
 20
175.155830
 42
-0.001816
  0
VERTEX
  8
0
 10
482.399688
 20
174.480410
 42
-0.006399
  0
VERTEX
  8
0
 10
485.645787
 20
173.992707
 42
0.013990
  0
VERTEX
  8
0
 10
488.987587
 20
173.542389
 42
0.003450
  0
VERTEX
  8
0
 10
494.496548
 20
172.994842
 42
0.003529
  0
VERTEX
  8
0
 10
500.816671
 20
172.455643
 42
0.003525
  0
VERTEX
  8
0
 10
507.145787
 20
172.005514
 42
-0.001179
  0
VERTEX
  8
0
 10
513.354197
 20
171.593234
 42
-0.001333
  0
VERTEX
  8
0
 10
519.311575
 20
171.167543
 42
-0.001215
  0
VERTEX
  8
0
 10
524.374780
 20
170.779801
 42
-0.007328
  0
VERTEX
  8
0
 10
527.000000
 20
170.533582
 42
0.013269
  0
VERTEX
  8
0
 10
529.704540
 20
170.312305
 42
0.001848
  0
VERTEX
  8
0
 10
535.318750
 20
170.023468
 42
0.002114
  0
VERTEX
  8
0
 10
541.969886
 20
169.734106
 42
0.001792
  0
VERTEX
  8
0
 10
549.000000
 20
169.483258
 42
-0.004498
  0
VERTEX
  8
0
 10
557.000754
 20
169.154407
 42
-0.002578
  0
VERTEX
  8
0
 10
566.646875
 20
168.621099
 42
-0.002574
  0
VERTEX
  8
0
 10
576.340152
 20
167.984942
 42
-0.004282
  0
VERTEX
  8
0
 10
584.500000
 20
167.336940
 42
0.019244
  0
VERTEX
  8
0
 10
606.012016
 20
166.274925
 42
0.013153
  0
VERTEX
  8
0
 10
630.479109
 20
166.653197
 42
0.013210
  0
VERTEX
  8
0
 10
653.719333
 20
168.240247
 42
0.030526
  0
VERTEX
  8
0
 10
671.000000
 20
170.951645
 42
-0.005939
  0
VERTEX
  8
0
 10
673.356505
 20
171.441092
 42
-0.001765
  0
VERTEX
  8
0
 10
676.968750
 20
172.133475
 42
-0.001771
  0
VERTEX
  8
0
 10
681.032835
 20
172.882708
 42
-0.001911
  0
VERTEX
  8
0
 10
685.000000
 20
173.583908
 42
0.016941
  0
VERTEX
  8
0
 10
705.517711
 20
177.849974
 42
0.027087
  0
VERTEX
  8
0
 10
722.649604
 20
183.019123
 42
0.032171
  0
VERTEX
  8
0
 10
736.275424
 20
188.965978
 42
0.064206
  0
VERTEX
  8
0
 10
745.939439
 20
195.635459
 42
0.000000
  0
VERTEX
  8
0
 10
751.242137
 20
200.403040
 42
0.000000
  0
VERTEX
  8
0
 10
765.871068
 20
201.216417
 42
0.009710
  0
VERTEX
  8
0
 10
777.245855
 20
202.070701
 42
0.012991
  0
VERTEX
  8
0
 10
787.519411
 20
203.313252
 42
0.014134
  0
VERTEX
  8
0
 10
796.934079
 20
204.974050
 42
0.016749
  0
VERTEX
  8
0
 10
805.716119
 20
207.089412
 42
0.041371
  0
VERTEX
  8
0
 10
824.516644
 20
214.006744
 42
0.048665
  0
VERTEX
  8
0
 10
840.859407
 20
223.637375
 42
0.054438
  0
VERTEX
  8
0
 10
853.295673
 20
234.959266
 42
0.094859
  0
VERTEX
  8
0
 10
860.374731
 20
246.921703
 42
0.049041
  0
VERTEX
  8
0
 10
861.979302
 20
253.280098
 42
0.026795
  0
VERTEX
  8
0
 10
862.747847
 20
261.293608
 42
0.026818
  0
VERTEX
  8
0
 10
862.655301
 20
269.280534
 42
0.052739
  0
VERTEX
  8
0
 10
861.578184
 20
275.533225
 42
0.066985
  0
VERTEX
  8
0
 10
854.601947
 20
291.595595
 42
0.059833
  0
VERTEX
  8
0
 10
843.403895
 20
305.934132
 42
0.058467
  0
VERTEX
  8
0
 10
828.850003
 20
317.498620
 42
0.058291
  0
VERTEX
  8
0
 10
812.000000
 20
325.393986
 42
0.046982
  0
VERTEX
  8
0
 10
796.015611
 20
329.100269
 42
0.016495
  0
VERTEX
  8
0
 10
772.548032
 20
331.477661
 42
0.016808
  0
VERTEX
  8
0
 10
748.414556
 20
332.307272
 42
0.035498
  0
VERTEX
  8
0
 10
729.742341
 20
330.994019
 42
-0.010073
  0
VERTEX
  8
0
 10
726.688456
 20
330.622565
 42
-0.013865
  0
VERTEX
  8
0
 10
723.931519
 20
330.420490
 42
-0.010486
  0
VERTEX
  8
0
 10
721.652512
 20
330.364715
 42
-0.140175
  0
VERTEX
  8
0
 10
720.854553
 20
330.589891
 42
-0.265815
  0
VERTEX
  8
0
 10
719.924728
 20
332.301642
 42
-0.001843
  0
VERTEX
  8
0
 10
720.367896
 20
349.547792
 42
-0.005356
  0
VERTEX
  8
0
 10
721.009310
 20
365.539536
 42
-0.056130
  0
VERTEX
  8
0
 10
722.071393
 20
372.000000
 42
-0.060573
  0
VERTEX
  8
0
 10
722.850142
 20
373.862236
 42
-0.050713
  0
VERTEX
  8
0
 10
724.092608
 20
375.608447
 42
-0.039600
  0
VERTEX
  8
0
 10
725.947947
 20
377.414299
 42
-0.018055
  0
VERTEX
  8
0
 10
728.629401
 20
379.480889
 42
0.024287
  0
VERTEX
  8
0
 10
735.760543
 20
385.119834
 42
0.014237
  0
VERTEX
  8
0
 10
743.753981
 20
392.508633
 42
0.014238
  0
VERTEX
  8
0
 10
751.311547
 20
400.337913
 42
0.024356
  0
VERTEX
  8
0
 10
757.095160
 20
407.337423
 42
0.027302
  0
VERTEX
  8
0
 10
761.923458
 20
414.591309
 42
0.013063
  0
VERTEX
  8
0
 10
767.356204
 20
424.382643
 42
0.013058
  0
VERTEX
  8
0
 10
772.264323
 20
434.432075
 42
0.027650
  0
VERTEX
  8
0
 10
775.420733
 20
442.500000
 42
-0.023892
  0
VERTEX
  8
0
 10
777.018648
 20
446.676534
 42
-0.081997
  0
VERTEX
  8
0
 10
778.597248
 20
449.102823
 42
-0.073824
  0
VERTEX
  8
0
 10
780.959903
 20
451.025065
 42
-0.017025
  0
VERTEX
  8
0
 10
785.473616
 20
453.500000
 42
0.051279
  0
VERTEX
  8
0
 10
791.920445
 20
457.631932
 42
0.029759
  0
VERTEX
  8
0
 10
798.769303
 20
463.785016
 42
0.029632
  0
VERTEX
  8
0
 10
804.905396
 20
470.779540
 42
0.046919
  0
VERTEX
  8
0
 10
809.185547
 20
477.500000
 42
0.071397
  0
VERTEX
  8
0
 10
814.869821
 20
494.053189
 42
0.065719
  0
VERTEX
  8
0
 10
815.894869
 20
512.024111
 42
0.062297
  0
VERTEX
  8
0
 10
812.173338
 20
530.505880
 42
0.053473
  0
VERTEX
  8
0
 10
803.898906
 20
548.548705
 42
0.020087
  0
VERTEX
  8
0
 10
797.768403
 20
557.967468
 42
0.010134
  0
VERTEX
  8
0
 10
789.333496
 20
569.357395
 42
0.009236
  0
VERTEX
  8
0
 10
779.258273
 20
581.914588
 42
0.007546
  0
VERTEX
  8
0
 10
768.034768
 20
594.979379
 42
-0.006814
  0
VERTEX
  8
0
 10
753.637453
 20
611.689159
 42
-0.014270
  0
VERTEX
  8
0
 10
742.996337
 20
625.147420
 42
-0.016117
  0
VERTEX
  8
0
 10
733.985611
 20
638.087670
 42
-0.011768
  0
VERTEX
  8
0
 10
724.791523
 20
653.000000
 42
-0.000601
  0
VERTEX
  8
0
 10
716.193381
 20
667.750429
 42
-0.003497
  0
VERTEX
  8
0
 10
711.725403
 20
675.561853
 42
-0.006625
  0
VERTEX
  8
0
 10
708.885011
 20
680.769583
 42
-0.011479
  0
VERTEX
  8
0
 10
706.683156
 20
685.179179
 42
-0.023280
  0
VERTEX
  8
0
 10
704.984314
 20
689.270056
 42
-0.108219
  0
VERTEX
  8
0
 10
704.651189
 20
691.789583
 42
-0.199893
  0
VERTEX
  8
0
 10
705.482707
 20
693.391748
 42
-0.113376
  0
VERTEX
  8
0
 10
707.460941
 20
694.400841
 42
0.115944
  0
VERTEX
  8
0
 10
710.138439
 20
695.783773
 42
0.048262
  0
VERTEX
  8
0
 10
712.978063
 20
698.731461
 42
0.047550
  0
VERTEX
  8
0
 10
715.308369
 20
702.325392
 42
0.078373
  0
VERTEX
  8
0
 10
716.457836
 20
705.750436
 42
0.107818
  0
VERTEX
  8
0
 10
716.150226
 20
712.230158
 42
0.131835
  0
VERTEX
  8
0
 10
713.123195
 20
717.463438
 42
0.118926
  0
VERTEX
  8
0
 10
707.587904
 20
720.838132
 42
0.077846
  0
VERTEX
  8
0
 10
700.170549
 20
722.000000
 42
-0.012689
  0
VERTEX
  8
0
 10
696.837562
 20
722.084600
 42
-0.058381
  0
VERTEX
  8
0
 10
694.935496
 20
722.405982
 42
-0.095984
  0
VERTEX
  8
0
 10
693.647715
 20
723.068894
 42
-0.073383
  0
VERTEX
  8
0
 10
692.556704
 20
724.222506
 42
-0.070888
  0
VERTEX
  8
0
 10
691.454851
 20
726.394482
 42
-0.084436
  0
VERTEX
  8
0
 10
691.090486
 20
728.660036
 42
-0.059890
  0
VERTEX
  8
0
 10
691.456686
 20
731.490858
 42
-0.019111
  0
VERTEX
  8
0
 10
692.658973
 20
735.571861
 42
-0.102355
  0
VERTEX
  8
0
 10
701.092329
 20
750.007759
 42
-0.073983
  0
VERTEX
  8
0
 10
715.502311
 20
761.910181
 42
-0.053399
  0
VERTEX
  8
0
 10
737.161175
 20
772.000953
 42
-0.022550
  0
VERTEX
  8
0
 10
768.000000
 20
781.009396
 42
-0.005427
  0
VERTEX
  8
0
 10
783.456576
 20
784.600079
 42
-0.010079
  0
VERTEX
  8
0
 10
796.079651
 20
787.122747
 42
-0.010228
  0
VERTEX
  8
0
 10
808.670375
 20
789.111189
 42
-0.005784
  0
VERTEX
  8
0
 10
824.000000
 20
791.031423
 42
0.005585
  0
VERTEX
  8
0
 10
852.086720
 20
794.538298
 42
0.006877
  0
VERTEX
  8
0
 10
878.197813
 20
798.461599
 42
0.007543
  0
VERTEX
  8
0
 10
900.945750
 20
802.553545
 42
0.015727
  0
VERTEX
  8
0
 10
918.500000
 20
806.562340
 42
0.007906
  0
VERTEX
  8
0
 10
927.341010
 20
809.026097
 42
0.006275
  0
VERTEX
  8
0
 10
936.812275
 20
811.957347
 42
0.006002
  0
VERTEX
  8
0
 10
945.327208
 20
814.823520
 42
0.023168
  0
VERTEX
  8
0
 10
950.500000
 20
816.907756
 42
-0.006795
  0
VERTEX
  8
0
 10
952.214665
 20
817.664774
 42
-0.005635
  0
VERTEX
  8
0
 10
954.059375
 20
818.424990
 42
-0.005694
  0
VERTEX
  8
0
 10
955.765952
 20
819.083457
 42
-0.015247
  0
VERTEX
  8
0
 10
957.000000
 20
819.501139
 42
0.033687
  0
VERTEX
  8
0
 10
958.526664
 20
820.081397
 42
0.003518
  0
VERTEX
  8
0
 10
961.998245
 20
821.705595
 42
0.004351
  0
VERTEX
  8
0
 10
966.107751
 20
823.707676
 42
0.003472
  0
VERTEX
  8
0
 10
970.504665
 20
825.935567
 42
0.041824
  0
VERTEX
  8
0
 10
996.386285
 20
842.145222
 42
0.050223
  0
VERTEX
  8
0
 10
1017.525058
 20
861.582755
 42
0.050536
  0
VERTEX
  8
0
 10
1034.263362
 20
884.736109
 42
0.043210
  0
VERTEX
  8
0
 10
1047.052020
 20
912.000000
 42
0.015724
  0
VERTEX
  8
0
 10
1050.035937
 20
920.980592
 42
0.009593
  0
VERTEX
  8
0
 10
1053.018334
 20
931.750276
 42
0.007818
  0
VERTEX
  8
0
 10
1055.445184
 20
941.871595
 42
0.054980
  0
VERTEX
  8
0
 10
1056.000000
 20
946.901990
 42
-0.021926
  0
VERTEX
  8
0
 10
1056.071721
 20
948.536740
 42
-0.013027
  0
VERTEX
  8
0
 10
1056.293049
 20
950.474211
 42
-0.013026
  0
VERTEX
  8
0
 10
1056.615099
 20
952.398240
 42
-0.021854
  0
VERTEX
  8
0
 10
1056.997613
 20
953.991677
 42
0.068097
  0
VERTEX
  8
0
 10
1058.331942
 20
963.238301
 42
0.009969
  0
VERTEX
  8
0
 10
1058.092463
 20
982.231785
 42
0.011778
  0
VERTEX
  8
0
 10
1057.008087
 20
1001.540666
 42
0.036012
  0
VERTEX
  8
0
 10
1055.027613
 20
1014.500000
 42
0.015606
  0
VERTEX
  8
0
 10
1048.204052
 20
1040.692311
 42
0.021847
  0
VERTEX
  8
0
 10
1040.374015
 20
1063.570732
 42
0.023499
  0
VERTEX
  8
0
 10
1031.103247
 20
1084.306849
 42
0.023688
  0
VERTEX
  8
0
 10
1019.949965
 20
1104.024376
 42
0.007183
  0
VERTEX
  8
0
 10
1012.102442
 20
1116.093815
 42
0.017907
  0
VERTEX
  8
0
 10
1005.931246
 20
1124.616882
 42
0.019679
  0
VERTEX
  8
0
 10
999.521211
 20
1132.198574
 42
0.010483
  0
VERTEX
  8
0
 10
991.037763
 20
1141.085569
 42
0.013046
  0
VERTEX
  8
0
 10
981.216422
 20
1150.449679
 42
0.013735
  0
VERTEX
  8
0
 10
971.083285
 20
1159.124421
 42
0.014136
  0
VERTEX
  8
0
 10
960.792869
 20
1166.984227
 42
0.016084
  0
VERTEX
  8
0
 10
950.500000
 20
1173.903318
 42
-0.001481
  0
VERTEX
  8
0
 10
947.618704
 20
1175.720340
 42
-0.001484
  0
VERTEX
  8
0
 10
944.749814
 20
1177.553406
 42
-0.001449
  0
VERTEX
  8
0
 10
942.255722
 20
1179.167678
 42
-0.005911
  0
VERTEX
  8
0
 10
940.754688
 20
1180.170857
 42
0.032677
  0
VERTEX
  8
0
 10
937.416435
 20
1182.152170
 42
0.002598
  0
VERTEX
  8
0
 10
928.224706
 20
1186.764876
 42
0.003592
  0
VERTEX
  8
0
 10
919.044109
 20
1191.230600
 42
0.015225
  0
VERTEX
  8
0
 10
913.452089
 20
1193.695066
 42
0.018333
  0
VERTEX
  8
0
 10
896.769285
 20
1199.746863
 42
0.018672
  0
VERTEX
  8
0
 10
879.788853
 20
1204.519414
 42
0.018270
  0
VERTEX
  8
0
 10
862.151971
 20
1208.096740
 42
0.015991
  0
VERTEX
  8
0
 10
843.500000
 20
1210.565625
 42
-0.004948
  0
VERTEX
  8
0
 10
841.475748
 20
1210.788208
 42
-0.005514
  0
VERTEX
  8
0
 10
839.528125
 20
1211.043711
 42
-0.005114
  0
VERTEX
  8
0
 10
837.873543
 20
1211.296650
 42
-0.028701
  0
VERTEX
  8
0
 10
837.000000
 20
1211.491361
 42
0.051456
  0
VERTEX
  8
0
 10
835.838989
 20
1211.695293
 42
0.000570
  0
VERTEX
  8
0
 10
827.862500
 20
1212.253876
 42
0.001770
  0
VERTEX
  8
0
 10
818.648262
 20
1212.855819
 42
0.001151
  0
VERTEX
  8
0
 10
808.000000
 20
1213.488982
 42
-0.004617
  0
VERTEX
  8
0
 10
787.873664
 20
1214.825786
 42
-0.011892
  0
VERTEX
  8
0
 10
773.373770
 20
1216.270977
 42
-0.014165
  0
VERTEX
  8
0
 10
760.510641
 20
1218.234160
 42
-0.009643
  0
VERTEX
  8
0
 10
746.000000
 20
1221.161490
 42
-0.014610
  0
VERTEX
  8
0
 10
731.004304
 20
1224.951677
 42
-0.025970
  0
VERTEX
  8
0
 10
718.950170
 20
1229.063179
 42
-0.028359
  0
VERTEX
  8
0
 10
708.134862
 20
1234.119742
 42
-0.022147
  0
VERTEX
  8
0
 10
697.000000
 20
1240.769083
 42
-0.018367
  0
VERTEX
  8
0
 10
689.389689
 20
1246.194689
 42
-0.029459
  0
VERTEX
  8
0
 10
683.369979
 20
1251.421171
 42
-0.025214
  0
VERTEX
  8
0
 10
677.396545
 20
1257.878415
 42
-0.009737
  0
VERTEX
  8
0
 10
669.755570
 20
1267.393169
 42
0.001867
  0
VERTEX
  8
0
 10
665.637997
 20
1272.689102
 42
0.002083
  0
VERTEX
  8
0
 10
661.628082
 20
1277.763328
 42
0.001919
  0
VERTEX
  8
0
 10
658.176235
 20
1282.060205
 42
0.011003
  0
VERTEX
  8
0
 10
656.287682
 20
1284.290500
 42
-0.022772
  0
VERTEX
  8
0
 10
655.051479
 20
1285.822058
 42
-0.032903
  0
VERTEX
  8
0
 10
654.116128
 20
1287.288523
 42
-0.034507
  0
VERTEX
  8
0
 10
653.545494
 20
1288.522968
 42
-0.233508
  0
VERTEX
  8
0
 10
653.607356
 20
1289.173705
 42
-0.272440
  0
VERTEX
  8
0
 10
655.567521
 20
1290.207310
 42
-0.015503
  0
VERTEX
  8
0
 10
662.658852
 20
1289.655060
 42
-0.023258
  0
VERTEX
  8
0
 10
670.369121
 20
1288.448485
 42
-0.032665
  0
VERTEX
  8
0
 10
677.085681
 20
1286.610976
 42
0.009314
  0
VERTEX
  8
0
 10
680.166612
 20
1285.611409
 42
0.010437
  0
VERTEX
  8
0
 10
683.168436
 20
1284.766974
 42
0.009799
  0
VERTEX
  8
0
 10
685.747327
 20
1284.152939
 42
0.053589
  0
VERTEX
  8
0
 10
687.170192
 20
1284.000000
 42
0.172288
  0
VERTEX
  8
0
 10
690.527493
 20
1285.192233
 42
0.150846
  0
VERTEX
  8
0
 10
692.604717
 20
1288.301943
 42
0.127997
  0
VERTEX
  8
0
 10
692.750420
 20
1292.479020
 42
0.112160
  0
VERTEX
  8
0
 10
690.873492
 20
1296.433699
 42
0.087970
  0
VERTEX
  8
0
 10
688.115046
 20
1298.896282
 42
0.029614
  0
VERTEX
  8
0
 10
683.349023
 20
1301.463522
 42
0.027415
  0
VERTEX
  8
0
 10
677.450411
 20
1303.819937
 42
0.023275
  0
VERTEX
  8
0
 10
671.000000
 20
1305.665745
 42
0.044397
  0
VERTEX
  8
0
 10
664.223154
 20
1306.644463
 42
0.022241
  0
VERTEX
  8
0
 10
655.561268
 20
1306.732986
 42
0.022003
  0
VERTEX
  8
0
 10
647.128386
 20
1306.071739
 42
0.057597
  0
VERTEX
  8
0
 10
641.232538
 20
1304.645678
 42
0.000000
  0
VERTEX
  8
0
 10
636.965075
 20
1303.076396
 42
0.000000
  0
VERTEX
  8
0
 10
629.232538
 20
1308.341620
 42
0.012900
  0
VERTEX
  8
0
 10
621.692653
 20
1313.195812
 42
0.006818
  0
VERTEX
  8
0
 10
612.107247
 20
1318.845227
 42
0.006598
  0
VERTEX
  8
0
 10
602.741591
 20
1324.031739
 42
0.020525
  0
VERTEX
  8
0
 10
596.250567
 20
1327.179287
 42
-0.000742
  0
VERTEX
  8
0
 10
594.123253
 20
1328.108798
 42
-0.000472
  0
VERTEX
  8
0
 10
591.648992
 20
1329.197068
 42
-0.000474
  0
VERTEX
  8
0
 10
589.222972
 20
1330.269601
 42
-0.000879
  0
VERTEX
  8
0
 10
587.256639
 20
1331.145276
 42
0.023823
  0
VERTEX
  8
0
 10
569.198525
 20
1338.213588
 42
0.018763
  0
VERTEX
  8
0
 10
549.058624
 20
1344.178191
 42
0.018428
  0
VERTEX
  8
0
 10
528.081744
 20
1348.727272
 42
0.020325
  0
VERTEX
  8
0
 10
507.500000
 20
1351.545024
 42
0.000032
  0
VERTEX
  8
0
 10
504.913075
 20
1351.792443
 42
0.000010
  0
VERTEX
  8
0
 10
501.031250
 20
1352.163385
 42
0.000010
  0
VERTEX
  8
0
 10
496.695255
 20
1352.577553
 42
0.000011
  0
VERTEX
  8
0
 10
492.500000
 20
1352.978103
 42
0.018554
  0
VERTEX
  8
0
 10
481.140486
 20
1353.638402
 42
0.005483
  0
VERTEX
  8
0
 10
463.712667
 20
1353.812532
 42
0.005039
  0
VERTEX
  8
0
 10
446.481681
 20
1353.622071
 42
0.026188
  0
SEQEND
  0
POLYLINE
  8
0
 66
1
 70
1
  0
VERTEX
  8
0
 10
503.350088
 20
1327.555070
 42
-0.015843
  0
VERTEX
  8
0
 10
533.926786
 20
1322.255458
 42
-0.027098
  0
VERTEX
  8
0
 10
558.966995
 20
1315.661665
 42
-0.029606
  0
VERTEX
  8
0
 10
581.545224
 20
1306.882065
 42
-0.024350
  0
VERTEX
  8
0
 10
604.500000
 20
1294.968167
 42
-0.006059
  0
VERTEX
  8
0
 10
611.990667
 20
1290.482584
 42
-0.061221
  0
VERTEX
  8
0
 10
614.826139
 20
1288.217831
 42
-0.131325
  0
VERTEX
  8
0
 10
616.083832
 20
1285.987164
 42
-0.063143
  0
VERTEX
  8
0
 10
616.500000
 20
1282.704858
 42
0.012270
  0
VERTEX
  8
0
 10
616.566396
 20
1279.999672
 42
0.164489
  0
VERTEX
  8
0
 10
616.925135
 20
1279.088668
 42
0.221640
  0
VERTEX
  8
0
 10
617.717185
 20
1278.722178
 42
0.024244
  0
VERTEX
  8
0
 10
619.773498
 20
1278.827831
 42
-0.143269
  0
VERTEX
  8
0
 10
626.142096
 20
1277.637421
 42
-0.070171
  0
VERTEX
  8
0
 10
632.970534
 20
1272.869976
 42
-0.035832
  0
VERTEX
  8
0
 10
641.925887
 20
1263.248386
 42
-0.007117
  0
VERTEX
  8
0
 10
656.419223
 20
1244.715261
 42
0.055230
  0
VERTEX
  8
0
 10
673.226714
 20
1227.024359
 42
0.052726
  0
VERTEX
  8
0
 10
693.749136
 20
1213.125414
 42
0.046957
  0
VERTEX
  8
0
 10
718.872042
 20
1202.618942
 42
0.030367
  0
VERTEX
  8
0
 10
749.500000
 20
1195.073799
 42
0.004661
  0
VERTEX
  8
0
 10
755.656594
 20
1194.007468
 42
0.003654
  0
VERTEX
  8
0
 10
762.352968
 20
1192.962037
 42
0.003702
  0
VERTEX
  8
0
 10
768.611382
 20
1192.079094
 42
0.008803
  0
VERTEX
  8
0
 10
773.279751
 20
1191.539163
 42
0.001872
  0
VERTEX
  8
0
 10
786.505571
 20
1190.294985
 42
0.003363
  0
VERTEX
  8
0
 10
797.368482
 20
1189.387723
 42
0.003603
  0
VERTEX
  8
0
 10
807.717603
 20
1188.668401
 42
0.002583
  0
VERTEX
  8
0
 10
819.295367
 20
1188.007482
 42
-0.014770
  0
VERTEX
  8
0
 10
841.839827
 20
1186.168375
 42
-0.023469
  0
VERTEX
  8
0
 10
860.956359
 20
1183.125226
 42
-0.024971
  0
VERTEX
  8
0
 10
878.820115
 20
1178.473839
 42
-0.020101
  0
VERTEX
  8
0
 10
897.500000
 20
1171.763897
 42
-0.043056
  0
VERTEX
  8
0
 10
932.323685
 20
1154.026053
 42
-0.044773
  0
VERTEX
  8
0
 10
963.107755
 20
1130.786012
 42
-0.045619
  0
VERTEX
  8
0
 10
988.757284
 20
1102.890711
 42
-0.048435
  0
VERTEX
  8
0
 10
1008.344354
 20
1071.334935
 42
-0.020186
  0
VERTEX
  8
0
 10
1014.696333
 20
1057.047818
 42
-0.015862
  0
VERTEX
  8
0
 10
1020.448199
 20
1041.105786
 42
-0.015094
  0
VERTEX
  8
0
 10
1025.463165
 20
1023.947437
 42
-0.013802
  0
VERTEX
  8
0
 10
1029.600521
 20
1006.000000
 42
-0.031427
  0
VERTEX
  8
0
 10
1030.953900
 20
996.119988
 42
-0.010975
  0
VERTEX
  8
0
 10
1031.690738
 20
981.783828
 42
-0.011187
  0
VERTEX
  8
0
 10
1031.793623
 20
967.148632
 42
-0.024694
  0
VERTEX
  8
0
 10
1031.071058
 20
956.000000
 42
-0.028787
  0
VERTEX
  8
0
 10
1028.597955
 20
941.734688
 42
-0.024238
  0
VERTEX
  8
0
 10
1024.394062
 20
926.986715
 42
-0.024281
  0
VERTEX
  8
0
 10
1018.793136
 20
912.745298
 42
-0.029233
  0
VERTEX
  8
0
 10
1012.130152
 20
900.000000
 42
-0.017646
  0
VERTEX
  8
0
 10
1006.995202
 20
892.083925
 42
-0.010300
  0
VERTEX
  8
0
 10
1000.317996
 20
882.951484
 42
-0.009890
  0
VERTEX
  8
0
 10
993.642993
 20
874.555639
 42
-0.033101
  0
VERTEX
  8
0
 10
988.812413
 20
869.449413
 42
-0.037663
  0
VERTEX
  8
0
 10
970.473075
 20
854.870321
 42
-0.034760
  0
VERTEX
  8
0
 10
949.670963
 20
842.769070
 42
-0.033887
  0
VERTEX
  8
0
 10
926.852546
 20
833.399096
 42
-0.031837
  0
VERTEX
  8
0
 10
902.500000
 20
826.966704
 42
0.004506
  0
VERTEX
  8
0
 10
899.990236
 20
826.448541
 42
0.004105
  0
VERTEX
  8
0
 10
897.410853
 20
825.869519
 42
0.004108
  0
VERTEX
  8
0
 10
895.113723
 20
825.314071
 42
0.013263
  0
VERTEX
  8
0
 10
893.600777
 20
824.892111
 42
-0.024387
  0
VERTEX
  8
0
 10
892.259398
 20
824.549961
 42
-0.013947
  0
VERTEX
  8
0
 10
890.612744
 20
824.262058
 42
-0.013908
  0
VERTEX
  8
0
 10
888.936459
 20
824.064376
 42
-0.022397
  0
VERTEX
  8
0
 10
887.500000
 20
824.000000
 42
0.024452
  0
VERTEX
  8
0
 10
886.063541
 20
823.929709
 42
0.015136
  0
VERTEX
  8
0
 10
884.387256
 20
823.713864
 42
0.015173
  0
VERTEX
  8
0
 10
882.740763
 20
823.399477
 42
0.026284
  0
VERTEX
  8
0
 10
881.399223
 20
823.025921
 42
-0.026731
  0
VERTEX
  8
0
 10
879.806242
 20
822.583882
 42
-0.006598
  0
VERTEX
  8
0
 10
877.148522
 20
822.033958
 42
-0.006733
  0
VERTEX
  8
0
 10
874.084004
 20
821.484618
 42
-0.006695
  0
VERTEX
  8
0
 10
871.000000
 20
821.016880
 42
0.000719
  0
VERTEX
  8
0
 10
867.419039
 20
820.517480
 42
0.000332
  0
VERTEX
  8
0
 10
862.765625
 20
819.858540
 42
0.000329
  0
VERTEX
  8
0
 10
857.876614
 20
819.159638
 42
0.000458
  0
VERTEX
  8
0
 10
853.500000
 20
818.526948
 42
-0.001326
  0
VERTEX
  8
0
 10
849.578164
 20
817.966947
 42
-0.001855
  0
VERTEX
  8
0
 10
846.070312
 20
817.488805
 42
-0.001105
  0
VERTEX
  8
0
 10
843.112449
 20
817.103452
 42
-0.024644
  0
VERTEX
  8
0
 10
842.250000
 20
817.035990
 42
-0.361130
  0
VERTEX
  8
0
 10
841.327788
 20
817.758138
 42
-0.224841
  0
VERTEX
  8
0
 10
841.658094
 20
819.175437
 42
-0.054505
  0
VERTEX
  8
0
 10
844.194394
 20
821.738275
 42
-0.014656
  0
VERTEX
  8
0
 10
848.750000
 20
825.218681
 42
0.025464
  0
VERTEX
  8
0
 10
856.026099
 20
831.030677
 42
0.016722
  0
VERTEX
  8
0
 10
863.812615
 20
838.407011
 42
0.012625
  0
VERTEX
  8
0
 10
870.585851
 20
845.623074
 42
0.121239
  0
VERTEX
  8
0
 10
872.543895
 20
849.318870
 42
0.063667
  0
VERTEX
  8
0
 10
872.918528
 20
852.459019
 42
0.104377
  0
VERTEX
  8
0
 10
872.345666
 20
855.064542
 42
0.110489
  0
VERTEX
  8
0
 10
870.803410
 20
857.116573
 42
0.077762
  0
VERTEX
  8
0
 10
868.334727
 20
858.633502
 42
0.079409
  0
VERTEX
  8
0
 10
865.065228
 20
859.424228
 42
0.105375
  0
VERTEX
  8
0
 10
862.039571
 20
859.025066
 42
0.090206
  0
VERTEX
  8
0
 10
859.102727
 20
857.339380
 42
0.045139
  0
VERTEX
  8
0
 10
856.082223
 20
854.283583
 42
-0.026320
  0
VERTEX
  8
0
 10
853.565542
 20
851.538414
 42
-0.007593
  0
VERTEX
  8
0
 10
849.395887
 20
847.567558
 42
-0.006663
  0
VERTEX
  8
0
 10
844.001536
 20
842.715998
 42
-0.003880
  0
VERTEX
  8
0
 10
837.407875
 20
837.032651
 42
-0.032192
  0
VERTEX
  8
0
 10
831.761282
 20
832.834973
 42
-0.010414
  0
VERTEX
  8
0
 10
822.899812
 20
827.352150
 42
-0.010717
  0
VERTEX
  8
0
 10
813.320304
 20
821.970927
 42
-0.017804
  0
VERTEX
  8
0
 10
805.000000
 20
817.902635
 42
-0.032760
  0
VERTEX
  8
0
 10
787.448925
 20
811.422785
 42
-0.026503
  0
VERTEX
  8
0
 10
767.916811
 20
806.742521
 42
-0.025010
  0
VERTEX
  8
0
 10
746.802699
 20
803.935271
 42
-0.021763
  0
VERTEX
  8
0
 10
724.506128
 20
803.073003
 42
-0.004761
  0
VERTEX
  8
0
 10
718.394376
 20
803.160932
 42
-0.005139
  0
VERTEX
  8
0
 10
712.439300
 20
803.364579
 42
-0.004863
  0
VERTEX
  8
0
 10
707.336199
 20
803.641373
 42
-0.024523
  0
VERTEX
  8
0
 10
704.500000
 20
803.963088
 42
0.002987
  0
VERTEX
  8
0
 10
701.844490
 20
804.380772
 42
0.000820
  0
VERTEX
  8
0
 10
697.657871
 20
805.006658
 42
0.000829
  0
VERTEX
  8
0
 10
692.910815
 20
805.700327
 42
0.000865
  0
VERTEX
  8
0
 10
688.228923
 20
806.368277
 42
-0.005221
  0
VERTEX
  8
0
 10
683.530231
 20
807.080444
 42
-0.004858
  0
VERTEX
  8
0
 10
678.732728
 20
807.906832
 42
-0.004847
  0
VERTEX
  8
0
 10
674.482222
 20
808.724236
 42
-0.016348
  0
VERTEX
  8
0
 10
671.728923
 20
809.375802
 42
0.005963
  0
VERTEX
  8
0
 10
668.939655
 20
810.097357
 42
0.001619
  0
VERTEX
  8
0
 10
664.510996
 20
811.171624
 42
0.001638
  0
VERTEX
  8
0
 10
659.477746
 20
812.357882
 42
0.001702
  0
VERTEX
  8
0
 10
654.500000
 20
813.496017
 42
-0.022988
  0
VERTEX
  8
0
 10
629.106253
 20
820.451416
 42
-0.032634
  0
VERTEX
  8
0
 10
607.356038
 20
829.102349
 42
-0.035118
  0
VERTEX
  8
0
 10
588.185511
 20
839.926648
 42
-0.034345
  0
VERTEX
  8
0
 10
570.567052
 20
853.400431
 42
-0.037627
  0
VERTEX
  8
0
 10
560.791505
 20
863.400607
 42
-0.030297
  0
VERTEX
  8
0
 10
551.832180
 20
875.478075
 42
-0.031201
  0
VERTEX
  8
0
 10
544.806724
 20
887.883484
 42
-0.057709
  0
VERTEX
  8
0
 10
540.975322
 20
898.797397
 42
-0.034503
  0
VERTEX
  8
0
 10
539.974853
 20
905.270395
 42
-0.031176
  0
VERTEX
  8
0
 10
539.825542
 20
912.044715
 42
-0.032605
  0
VERTEX
  8
0
 10
540.472322
 20
918.153676
 42
-0.077900
  0
VERTEX
  8
0
 10
541.929356
 20
922.461442
 42
0.037619
  0
VERTEX
  8
0
 10
543.459455
 20
926.016477
 42
0.091720
  0
VERTEX
  8
0
 10
543.879272
 20
928.826425
 42
0.112496
  0
VERTEX
  8
0
 10
543.240560
 20
931.240294
 42
0.075813
  0
VERTEX
  8
0
 10
541.545455
 20
933.545455
 42
0.178071
  0
VERTEX
  8
0
 10
536.362318
 20
935.941083
 42
0.153560
  0
VERTEX
  8
0
 10
530.484712
 20
934.600567
 42
0.110188
  0
VERTEX
  8
0
 10
524.951013
 20
929.461230
 42
0.068114
  0
VERTEX
  8
0
 10
520.938761
 20
921.500000
 42
0.068551
  0
VERTEX
  8
0
 10
519.796177
 20
915.681876
 42
0.017742
  0
VERTEX
  8
0
 10
519.589860
 20
906.108364
 42
0.018743
  0
VERTEX
  8
0
 10
520.096860
 20
896.256311
 42
0.043867
  0
VERTEX
  8
0
 10
521.391634
 20
889.000000
 42
0.069254
  0
VERTEX
  8
0
 10
530.269391
 20
868.149953
 42
0.054048
  0
VERTEX
  8
0
 10
545.160483
 20
848.513519
 42
0.047858
  0
VERTEX
  8
0
 10
565.837179
 20
830.439098
 42
0.034234
  0
VERTEX
  8
0
 10
591.975800
 20
814.259767
 42
0.017185
  0
VERTEX
  8
0
 10
597.937119
 20
811.369441
 42
0.006970
  0
VERTEX
  8
0
 10
606.240855
 20
807.827860
 42
0.003436
  0
VERTEX
  8
0
 10
614.656988
 20
804.443580
 42
0.094141
  0
VERTEX
  8
0
 10
616.992039
 20
804.000000
 42
-0.062614
  0
VERTEX
  8
0
 10
617.507588
 20
803.935185
 42
-0.021193
  0
VERTEX
  8
0
 10
618.233154
 20
803.716682
 42
-0.020698
  0
VERTEX
  8
0
 10
619.022793
 20
803.404692
 42
-0.022339
  0
VERTEX
  8
0
 10
619.763569
 20
803.035514
 42
0.069785
  0
VERTEX
  8
0
 10
628.346601
 20
799.729493
 42
0.004869
  0
VERTEX
  8
0
 10
653.632356
 20
794.112696
 42
0.006093
  0
VERTEX
  8
0
 10
678.686858
 20
789.120970
 42
0.045646
  0
VERTEX
  8
0
 10
690.733458
 20
787.994423
 42
-0.043134
  0
VERTEX
  8
0
 10
694.138535
 20
787.693210
 42
-0.038944
  0
VERTEX
  8
0
 10
697.564088
 20
786.810150
 42
-0.037723
  0
VERTEX
  8
0
 10
700.296424
 20
785.637012
 42
-0.279407
  0
VERTEX
  8
0
 10
701.000000
 20
784.476250
 42
-0.171856
  0
VERTEX
  8
0
 10
700.725007
 20
783.699810
 42
-0.018733
  0
VERTEX
  8
0
 10
699.457813
 20
782.249842
 42
-0.021203
  0
VERTEX
  8
0
 10
697.760776
 20
780.595356
 42
-0.015591
  0
VERTEX
  8
0
 10
695.750000
 20
778.904712
 42
0.033412
  0
VERTEX
  8
0
 10
682.799631
 20
767.204116
 42
0.058756
  0
VERTEX
  8
0
 10
674.057518
 20
755.749144
 42
0.064999
  0
VERTEX
  8
0
 10
668.782543
 20
743.433843
 42
0.051998
  0
VERTEX
  8
0
 10
666.324714
 20
729.198102
 42
-0.005431
  0
VERTEX
  8
0
 10
665.872052
 20
723.401001
 42
-0.054237
  0
VERTEX
  8
0
 10
665.395999
 20
721.017765
 42
-0.123831
  0
VERTEX
  8
0
 10
664.534664
 20
719.618958
 42
-0.073937
  0
VERTEX
  8
0
 10
662.940918
 20
718.469447
 42
-0.095321
  0
VERTEX
  8
0
 10
659.389447
 20
717.420537
 42
-0.007669
  0
VERTEX
  8
0
 10
649.624041
 20
716.620195
 42
-0.003938
  0
VERTEX
  8
0
 10
631.716966
 20
715.570374
 42
-0.000276
  0
VERTEX
  8
0
 10
581.500000
 20
713.050883
 42
0.000407
  0
VERTEX
  8
0
 10
572.755301
 20
712.609842
 42
0.000385
  0
VERTEX
  8
0
 10
563.846116
 20
712.146350
 42
0.000382
  0
VERTEX
  8
0
 10
555.959010
 20
711.723894
 42
0.001349
  0
VERTEX
  8
0
 10
550.891034
 20
711.434842
 42
-0.016004
  0
VERTEX
  8
0
 10
543.431133
 20
711.228416
 42
-0.140646
  0
VERTEX
  8
0
 10
540.292486
 20
712.143880
 42
-0.193056
  0
VERTEX
  8
0
 10
538.618156
 20
714.459104
 42
-0.035153
  0
VERTEX
  8
0
 10
537.681105
 20
719.776926
 42
0.048627
  0
VERTEX
  8
0
 10
535.817277
 20
728.909539
 42
0.031584
  0
VERTEX
  8
0
 10
532.002627
 20
738.993692
 42
0.030772
  0
VERTEX
  8
0
 10
526.774038
 20
748.883878
 42
0.036734
  0
VERTEX
  8
0
 10
520.637383
 20
757.456604
 42
0.058879
  0
VERTEX
  8
0
 10
505.410314
 20
771.884766
 42
0.040277
  0
VERTEX
  8
0
 10
485.209438
 20
784.559044
 42
0.034395
  0
VERTEX
  8
0
 10
459.912289
 20
795.585802
 42
0.021956
  0
VERTEX
  8
0
 10
429.232980
 20
805.021934
 42
-0.003267
  0
VERTEX
  8
0
 10
417.594042
 20
808.130851
 42
-0.009614
  0
VERTEX
  8
0
 10
409.644297
 20
810.475315
 42
-0.010072
  0
VERTEX
  8
0
 10
404.109758
 20
812.347266
 42
-0.102212
  0
VERTEX
  8
0
 10
402.050765
 20
813.609675
 42
-0.134274
  0
VERTEX
  8
0
 10
401.343682
 20
814.762647
 42
-0.065485
  0
VERTEX
  8
0
 10
401.079669
 20
816.481751
 42
-0.031101
  0
VERTEX
  8
0
 10
401.194258
 20
819.303887
 42
-0.005102
  0
VERTEX
  8
0
 10
401.810412
 20
824.734950
 42
0.029614
  0
VERTEX
  8
0
 10
402.996262
 20
843.250603
 42
0.020035
  0
VERTEX
  8
0
 10
402.249253
 20
864.393396
 42
0.018825
  0
VERTEX
  8
0
 10
399.682002
 20
887.010154
 42
0.017350
  0
VERTEX
  8
0
 10
395.370871
 20
910.000000
 42
0.008919
  0
VERTEX
  8
0
 10
391.740473
 20
924.970950
 42
0.007844
  0
VERTEX
  8
0
 10
387.429537
 20
940.461413
 42
0.008117
  0
VERTEX
  8
0
 10
382.949475
 20
954.774264
 42
0.015847
  0
VERTEX
  8
0
 10
378.835533
 20
966.000000
 42
0.013092
  0
VERTEX
  8
0
 10
373.570709
 20
978.141568
 42
0.006517
  0
VERTEX
  8
0
 10
366.302442
 20
993.251058
 42
0.006453
  0
VERTEX
  8
0
 10
358.785977
 20
1007.891841
 42
0.016111
  0
VERTEX
  8
0
 10
352.817873
 20
1018.329207
 42
-0.003888
  0
VERTEX
  8
0
 10
350.971548
 20
1021.382482
 42
-0.005865
  0
VERTEX
  8
0
 10
349.415250
 20
1024.073302
 42
-0.002552
  0
VERTEX
  8
0
 10
348.129248
 20
1026.385745
 42
-0.126272
  0
VERTEX
  8
0
 10
348.000000
 20
1026.889369
 42
0.196298
  0
VERTEX
  8
0
 10
347.276457
 20
1028.661322
 42
0.031818
  0
VERTEX
  8
0
 10
344.451470
 20
1031.198862
 42
0.033965
  0
VERTEX
  8
0
 10
341.265354
 20
1033.380130
 42
0.133897
  0
VERTEX
  8
0
 10
338.992127
 20
1034.000000
 42
0.089133
  0
VERTEX
  8
0
 10
335.897822
 20
1033.443974
 42
0.123461
  0
VERTEX
  8
0
 10
333.582794
 20
1031.855857
 42
0.114912
  0
VERTEX
  8
0
 10
332.183498
 20
1029.263912
 42
0.070447
  0
VERTEX
  8
0
 10
331.746681
 20
1025.802854
 42
0.073836
  0
VERTEX
  8
0
 10
332.430195
 20
1021.634274
 42
0.020472
  0
VERTEX
  8
0
 10
334.714620
 20
1015.392823
 42
0.011156
  0
VERTEX
  8
0
 10
339.038566
 20
1005.555160
 42
0.001890
  0
VERTEX
  8
0
 10
347.778591
 20
987.000000
 42
-0.011696
  0
VERTEX
  8
0
 10
354.821569
 20
971.253891
 42
-0.012792
  0
VERTEX
  8
0
 10
360.900850
 20
955.655062
 42
-0.013278
  0
VERTEX
  8
0
 10
365.962819
 20
940.353514
 42
-0.015277
  0
VERTEX
  8
0
 10
369.951969
 20
925.500000
 42
0.000127
  0
VERTEX
  8
0
 10
370.801028
 20
921.907380
 42
0.000156
  0
VERTEX
  8
0
 10
371.595015
 20
918.556250
 42
0.000129
  0
VERTEX
  8
0
 10
372.263884
 20
915.740345
 42
0.001142
  0
VERTEX
  8
0
 10
372.561838
 20
914.500000
 42
-0.029391
  0
VERTEX
  8
0
 10
378.321452
 20
882.716691
 42
-0.032459
  0
VERTEX
  8
0
 10
380.058091
 20
851.519182
 42
-0.034800
  0
VERTEX
  8
0
 10
377.779023
 20
822.678671
 42
-0.050783
  0
VERTEX
  8
0
 10
371.479894
 20
798.000000
 42
-0.043581
  0
VERTEX
  8
0
 10
364.277806
 20
782.641866
 42
-0.055175
  0
VERTEX
  8
0
 10
354.973470
 20
770.036006
 42
-0.059165
  0
VERTEX
  8
0
 10
343.748948
 20
760.455792
 42
-0.063691
  0
VERTEX
  8
0
 10
330.858026
 20
754.050938
 42
-0.073258
  0
VERTEX
  8
0
 10
315.793807
 20
751.190306
 42
-0.032574
  0
VERTEX
  8
0
 10
295.536401
 20
751.670838
 42
-0.032291
  0
VERTEX
  8
0
 10
274.650256
 20
754.900176
 42
-0.050153
  0
VERTEX
  8
0
 10
257.348871
 20
760.598815
 42
0.008249
  0
VERTEX
  8
0
 10
256.086509
 20
761.135374
 42
0.010380
  0
VERTEX
  8
0
 10
254.899711
 20
761.588402
 42
0.008686
  0
VERTEX
  8
0
 10
253.895628
 20
761.928428
 42
0.077442
  0
VERTEX
  8
0
 10
253.436297
 20
762.000000
 42
-0.133483
  0
VERTEX
  8
0
 10
251.001889
 20
762.661695
 42
-0.002845
  0
VERTEX
  8
0
 10
240.238332
 20
769.062383
 42
-0.007110
  0
VERTEX
  8
0
 10
229.984175
 20
775.439875
 42
-0.021818
  0
VERTEX
  8
0
 10
223.300790
 20
780.153400
 42
-0.026217
  0
VERTEX
  8
0
 10
208.905395
 20
792.534155
 42
-0.016426
  0
VERTEX
  8
0
 10
193.352778
 20
808.406473
 42
-0.016480
  0
VERTEX
  8
0
 10
179.309228
 20
824.764388
 42
-0.034744
  0
VERTEX
  8
0
 10
169.770375
 20
838.500000
 42
-0.018797
  0
VERTEX
  8
0
 10
163.088956
 20
850.731778
 42
-0.025413
  0
VERTEX
  8
0
 10
158.049285
 20
862.278351
 42
-0.026001
  0
VERTEX
  8
0
 10
154.291094
 20
874.061946
 42
-0.021206
  0
VERTEX
  8
0
 10
151.474673
 20
887.000000
 42
0.004237
  0
VERTEX
  8
0
 10
150.757784
 20
890.930469
 42
0.004122
  0
VERTEX
  8
0
 10
149.968103
 20
894.884375
 42
0.004069
  0
VERTEX
  8
0
 10
149.217186
 20
898.347785
 42
0.015298
  0
VERTEX
  8
0
 10
148.662497
 20
900.500000
 42
-0.067498
  0
VERTEX
  8
0
 10
147.532299
 20
908.078514
 42
-0.005653
  0
VERTEX
  8
0
 10
147.493690
 20
927.944302
 42
-0.008049
  0
VERTEX
  8
0
 10
148.003418
 20
947.961999
 42
-0.024536
  0
VERTEX
  8
0
 10
149.233571
 20
961.500000
 42
-0.016923
  0
VERTEX
  8
0
 10
152.992171
 20
982.942738
 42
-0.013671
  0
VERTEX
  8
0
 10
158.429002
 20
1005.680344
 42
-0.013066
  0
VERTEX
  8
0
 10
165.401128
 20
1029.200944
 42
-0.012013
  0
VERTEX
  8
0
 10
173.775035
 20
1053.000000
 42
-0.019281
  0
VERTEX
  8
0
 10
181.796354
 20
1071.924098
 42
-0.014714
  0
VERTEX
  8
0
 10
191.963713
 20
1091.994853
 42
-0.014890
  0
VERTEX
  8
0
 10
203.076177
 20
1111.043753
 42
-0.022608
  0
VERTEX
  8
0
 10
213.947597
 20
1126.829782
 42
0.006289
  0
VERTEX
  8
0
 10
219.290061
 20
1134.069832
 42
0.020360
  0
VERTEX
  8
0
 10
222.575446
 20
1139.057984
 42
0.029328
  0
VERTEX
  8
0
 10
224.736982
 20
1143.178976
 42
0.032560
  0
VERTEX
  8
0
 10
226.317139
 20
1147.385537
 42
-0.002706
  0
VERTEX
  8
0
 10
230.178700
 20
1159.884540
 42
-0.008142
  0
VERTEX
  8
0
 10
232.997927
 20
1168.353729
 42
-0.011324
  0
VERTEX
  8
0
 10
235.496109
 20
1174.985183
 42
-0.012526
  0
VERTEX
  8
0
 10
238.214638
 20
1181.274821
 42
-0.042477
  0
VERTEX
  8
0
 10
262.546203
 20
1223.975884
 42
-0.045523
  0
VERTEX
  8
0
 10
293.252381
 20
1260.892727
 42
-0.047296
  0
VERTEX
  8
0
 10
328.909906
 20
1290.410916
 42
-0.054250
  0
VERTEX
  8
0
 10
367.940950
 20
1311.157570
 42
-0.012125
  0
VERTEX
  8
0
 10
385.040193
 20
1317.514234
 42
-0.018208
  0
VERTEX
  8
0
 10
400.267096
 20
1322.145495
 42
-0.018322
  0
VERTEX
  8
0
 10
415.719609
 20
1325.636840
 42
-0.012495
  0
VERTEX
  8
0
 10
433.500000
 20
1328.516859
 42
-0.030041
  0
VERTEX
  8
0
 10
446.318260
 20
1329.486887
 42
-0.007309
  0
VERTEX
  8
0
 10
467.542901
 20
1329.504925
 42
-0.007638
  0
VERTEX
  8
0
 10
488.988869
 20
1328.881873
 42
-0.023908
  0
SEQEND
  0
POLYLINE
  8
0
 66
1
 70
1
  0
VERTEX
  8
0
 10
675.782326
 20
690.250000
 42
-0.077519
  0
VERTEX
  8
0
 10
676.915892
 20
688.899259
 42
-0.004646
  0
VERTEX
  8
0
 10
679.628249
 20
684.314062
 42
-0.006880
  0
VERTEX
  8
0
 10
682.745262
 20
678.756317
 42
-0.005021
  0
VERTEX
  8
0
 10
686.060852
 20
672.500000
 42
0.000398
  0
VERTEX
  8
0
 10
693.715069
 20
657.728478
 42
0.004752
  0
VERTEX
  8
0
 10
696.733170
 20
652.047977
 42
0.010219
  0
VERTEX
  8
0
 10
699.023411
 20
648.032371
 42
0.005427
  0
VERTEX
  8
0
 10
702.014474
 20
643.149595
 42
-0.002948
  0
VERTEX
  8
0
 10
703.542036
 20
640.683451
 42
-0.004562
  0
VERTEX
  8
0
 10
704.829252
 20
638.533866
 42
-0.001548
  0
VERTEX
  8
0
 10
705.915739
 20
636.668135
 42
-0.131814
  0
VERTEX
  8
0
 10
706.000000
 20
636.354067
 42
0.131109
  0
VERTEX
  8
0
 10
706.086641
 20
636.029332
 42
0.000639
  0
VERTEX
  8
0
 10
707.807876
 20
633.042136
 42
0.002868
  0
VERTEX
  8
0
 10
709.795233
 20
629.648338
 42
0.001804
  0
VERTEX
  8
0
 10
712.154472
 20
625.704472
 42
-0.008069
  0
VERTEX
  8
0
 10
717.451144
 20
616.592965
 42
-0.013001
  0
VERTEX
  8
0
 10
721.632148
 20
608.648144
 42
-0.010270
  0
VERTEX
  8
0
 10
726.017725
 20
599.281386
 42
-0.003172
  0
VERTEX
  8
0
 10
732.241967
 20
585.000000
 42
-0.026687
  0
VERTEX
  8
0
 10
743.765324
 20
553.558709
 42
-0.029304
  0
VERTEX
  8
0
 10
751.459520
 20
522.028446
 42
-0.031438
  0
VERTEX
  8
0
 10
754.980995
 20
492.299211
 42
-0.047770
  0
VERTEX
  8
0
 10
753.930455
 20
466.322359
 42
-0.041271
  0
VERTEX
  8
0
 10
750.891936
 20
452.630504
 42
-0.030729
  0
VERTEX
  8
0
 10
745.403266
 20
438.150436
 42
-0.031100
  0
VERTEX
  8
0
 10
738.308721
 20
424.718322
 42
-0.047952
  0
VERTEX
  8
0
 10
730.428277
 20
414.220797
 42
-0.022895
  0
VERTEX
  8
0
 10
723.630711
 20
407.425433
 42
-0.014351
  0
VERTEX
  8
0
 10
715.107034
 20
400.087923
 42
-0.013546
  0
VERTEX
  8
0
 10
705.492329
 20
392.703206
 42
-0.013019
  0
VERTEX
  8
0
 10
695.365953
 20
385.748035
 42
0.010614
  0
VERTEX
  8
0
 10
688.363863
 20
380.988140
 42
0.047000
  0
VERTEX
  8
0
 10
684.596938
 20
377.736021
 42
0.084293
  0
VERTEX
  8
0
 10
682.670329
 20
374.898599
 42
0.107487
  0
VERTEX
  8
0
 10
682.000000
 20
371.816449
 42
0.113835
  0
VERTEX
  8
0
 10
682.661351
 20
368.949212
 42
0.125400
  0
VERTEX
  8
0
 10
684.500123
 20
366.778882
 42
0.100851
  0
VERTEX
  8
0
 10
687.516279
 20
365.441373
 42
0.054145
  0
VERTEX
  8
0
 10
691.580153
 20
365.000000
 42
-0.045339
  0
VERTEX
  8
0
 10
695.311299
 20
364.660971
 42
-0.228813
  0
VERTEX
  8
0
 10
696.953982
 20
363.460465
 42
-0.123289
  0
VERTEX
  8
0
 10
697.591499
 20
360.904791
 42
-0.010194
  0
VERTEX
  8
0
 10
697.444643
 20
354.000000
 42
0.004627
  0
VERTEX
  8
0
 10
697.332540
 20
350.541156
 42
0.001254
  0
VERTEX
  8
0
 10
697.219509
 20
345.064994
 42
0.001269
  0
VERTEX
  8
0
 10
697.122597
 20
338.849518
 42
0.001318
  0
VERTEX
  8
0
 10
697.058643
 20
332.710617
 42
0.010972
  0
VERTEX
  8
0
 10
697.216155
 20
321.587718
 42
0.060964
  0
VERTEX
  8
0
 10
698.153756
 20
315.698424
 42
0.116091
  0
VERTEX
  8
0
 10
700.181988
 20
312.079253
 42
0.096745
  0
VERTEX
  8
0
 10
703.737414
 20
309.454364
 42
0.071266
  0
VERTEX
  8
0
 10
706.921019
 20
308.466861
 42
0.044861
  0
VERTEX
  8
0
 10
710.812443
 20
308.198632
 42
0.021738
  0
VERTEX
  8
0
 10
716.883199
 20
308.589597
 42
0.003274
  0
VERTEX
  8
0
 10
729.000000
 20
309.980976
 42
-0.023876
  0
VERTEX
  8
0
 10
741.430115
 20
310.891670
 42
-0.008350
  0
VERTEX
  8
0
 10
759.357915
 20
311.047515
 42
-0.007867
  0
VERTEX
  8
0
 10
776.985989
 20
310.628934
 42
-0.033165
  0
VERTEX
  8
0
 10
787.500000
 20
309.512596
 42
-0.042833
  0
VERTEX
  8
0
 10
806.102503
 20
304.609758
 42
-0.065523
  0
VERTEX
  8
0
 10
820.922320
 20
297.003886
 42
-0.074667
  0
VERTEX
  8
0
 10
831.878440
 20
286.713269
 42
-0.079473
  0
VERTEX
  8
0
 10
839.049894
 20
273.863497
 42
-0.053541
  0
VERTEX
  8
0
 10
840.748480
 20
267.024642
 42
-0.063858
  0
VERTEX
  8
0
 10
840.807733
 20
260.385181
 42
-0.067215
  0
VERTEX
  8
0
 10
839.217173
 20
254.229191
 42
-0.069990
  0
VERTEX
  8
0
 10
836.063836
 20
248.807940
 42
-0.070563
  0
VERTEX
  8
0
 10
833.234340
 20
246.100683
 42
-0.024124
  0
VERTEX
  8
0
 10
828.454616
 20
243.008680
 42
-0.016021
  0
VERTEX
  8
0
 10
823.553487
 20
240.369778
 42
-0.323519
  0
VERTEX
  8
0
 10
821.976903
 20
240.630533
 42
-0.079320
  0
VERTEX
  8
0
 10
821.505594
 20
241.286827
 42
-0.004910
  0
VERTEX
  8
0
 10
820.449301
 20
243.447719
 42
-0.007179
  0
VERTEX
  8
0
 10
819.247970
 20
246.063798
 42
-0.005255
  0
VERTEX
  8
0
 10
817.987068
 20
249.000000
 42
0.008443
  0
VERTEX
  8
0
 10
814.004656
 20
258.112954
 42
0.025431
  0
VERTEX
  8
0
 10
810.874657
 20
264.129064
 42
0.034059
  0
VERTEX
  8
0
 10
807.718280
 20
268.755877
 42
0.029164
  0
VERTEX
  8
0
 10
803.805777
 20
273.171324
 42
0.031769
  0
VERTEX
  8
0
 10
799.455814
 20
277.016570
 42
0.070785
  0
VERTEX
  8
0
 10
795.627759
 20
279.203483
 42
0.097931
  0
VERTEX
  8
0
 10
792.195892
 20
279.836722
 42
0.120230
  0
VERTEX
  8
0
 10
789.048890
 20
279.026165
 42
0.135884
  0
VERTEX
  8
0
 10
786.612101
 20
276.703096
 42
0.143865
  0
VERTEX
  8
0
 10
785.785066
 20
273.509531
 42
0.113958
  0
VERTEX
  8
0
 10
786.774668
 20
269.779077
 42
0.066809
  0
VERTEX
  8
0
 10
789.470650
 20
266.000000
 42
-0.054314
  0
VERTEX
  8
0
 10
793.746941
 20
260.310817
 42
-0.028305
  0
VERTEX
  8
0
 10
797.844947
 20
252.428550
 42
-0.028244
  0
VERTEX
  8
0
 10
801.061648
 20
244.045131
 42
-0.049326
  0
VERTEX
  8
0
 10
802.621027
 20
236.776415
 42
-0.008528
  0
VERTEX
  8
0
 10
802.970545
 20
233.135440
 42
-0.094524
  0
VERTEX
  8
0
 10
802.811027
 20
231.689004
 42
-0.180016
  0
VERTEX
  8
0
 10
802.135575
 20
230.808817
 42
-0.049219
  0
VERTEX
  8
0
 10
800.542188
 20
230.016040
 42
-0.043116
  0
VERTEX
  8
0
 10
794.496824
 20
228.296360
 42
-0.007793
  0
VERTEX
  8
0
 10
782.983672
 20
226.256256
 42
-0.008679
  0
VERTEX
  8
0
 10
771.233445
 20
224.571203
 42
-0.027601
  0
VERTEX
  8
0
 10
763.321429
 20
224.017329
 42
-0.171437
  0
VERTEX
  8
0
 10
761.433443
 20
224.653209
 42
-0.124306
  0
VERTEX
  8
0
 10
760.063813
 20
226.421568
 42
-0.075193
  0
VERTEX
  8
0
 10
759.248027
 20
229.468988
 42
-0.027872
  0
VERTEX
  8
0
 10
759.000000
 20
233.914878
 42
0.086225
  0
VERTEX
  8
0
 10
756.639633
 20
247.500437
 42
0.059829
  0
VERTEX
  8
0
 10
749.655973
 20
261.470723
 42
0.056564
  0
VERTEX
  8
0
 10
739.038017
 20
274.177408
 42
0.058236
  0
VERTEX
  8
0
 10
725.938566
 20
284.040113
 42
0.036565
  0
VERTEX
  8
0
 10
709.357685
 20
292.171040
 42
0.043884
  0
VERTEX
  8
0
 10
692.738089
 20
297.223219
 42
0.033665
  0
VERTEX
  8
0
 10
672.250221
 20
300.112436
 42
0.011961
  0
VERTEX
  8
0
 10
642.687415
 20
301.558400
 42
-0.002686
  0
VERTEX
  8
0
 10
634.963151
 20
301.792705
 42
-0.004163
  0
VERTEX
  8
0
 10
628.298808
 20
302.086276
 42
-0.001361
  0
VERTEX
  8
0
 10
622.547539
 20
302.403327
 42
-0.124584
  0
VERTEX
  8
0
 10
621.748340
 20
302.655535
 42
-0.197066
  0
VERTEX
  8
0
 10
621.413186
 20
303.117069
 42
-0.039387
  0
VERTEX
  8
0
 10
621.247477
 20
304.142604
 42
-0.036190
  0
VERTEX
  8
0
 10
621.235593
 20
305.446065
 42
-0.026846
  0
VERTEX
  8
0
 10
621.403666
 20
306.877132
 42
0.004005
  0
VERTEX
  8
0
 10
621.775635
 20
309.144863
 42
0.000426
  0
VERTEX
  8
0
 10
622.594439
 20
314.429532
 42
0.000525
  0
VERTEX
  8
0
 10
623.557622
 20
320.725184
 42
0.000422
  0
VERTEX
  8
0
 10
624.580979
 20
327.500000
 42
-0.000683
  0
VERTEX
  8
0
 10
626.124017
 20
337.679181
 42
-0.001804
  0
VERTEX
  8
0
 10
627.265208
 20
344.962737
 42
-0.002196
  0
VERTEX
  8
0
 10
628.320362
 20
351.362026
 42
-0.001578
  0
VERTEX
  8
0
 10
629.552723
 20
358.500000
 42
0.103727
  0
VERTEX
  8
0
 10
629.447700
 20
361.720967
 42
0.091592
  0
VERTEX
  8
0
 10
628.070003
 20
364.789649
 42
0.091669
  0
VERTEX
  8
0
 10
625.688172
 20
367.161551
 42
0.104133
  0
VERTEX
  8
0
 10
622.716382
 20
368.393429
 42
0.094387
  0
VERTEX
  8
0
 10
618.245534
 20
368.381040
 42
0.101599
  0
VERTEX
  8
0
 10
614.219733
 20
366.709761
 42
0.096408
  0
VERTEX
  8
0
 10
611.023673
 20
363.495631
 42
0.076625
  0
VERTEX
  8
0
 10
608.946561
 20
359.053719
 42
0.025620
  0
VERTEX
  8
0
 10
606.840759
 20
350.189063
 42
0.003357
  0
VERTEX
  8
0
 10
603.461560
 20
331.108589
 42
0.003975
  0
VERTEX
  8
0
 10
600.345214
 20
311.873820
 42
0.015395
  0
VERTEX
  8
0
 10
598.876294
 20
299.881685
 42
0.000000
  0
VERTEX
  8
0
 10
597.670361
 20
286.680295
 42
0.000000
  0
VERTEX
  8
0
 10
600.292740
 20
284.424619
 42
0.081542
  0
VERTEX
  8
0
 10
602.405020
 20
283.136415
 42
0.075188
  0
VERTEX
  8
0
 10
604.878595
 20
282.544643
 42
0.027120
  0
VERTEX
  8
0
 10
609.085294
 20
282.416277
 42
0.002145
  0
VERTEX
  8
0
 10
620.254100
 20
282.729207
 42
-0.013252
  0
VERTEX
  8
0
 10
636.090868
 20
282.821055
 42
-0.007813
  0
VERTEX
  8
0
 10
654.999585
 20
282.133826
 42
-0.007119
  0
VERTEX
  8
0
 10
672.712331
 20
280.959642
 42
-0.031871
  0
VERTEX
  8
0
 10
683.000000
 20
279.466299
 42
-0.026458
  0
VERTEX
  8
0
 10
694.148439
 20
276.491328
 42
-0.028931
  0
VERTEX
  8
0
 10
704.583310
 20
272.425727
 42
-0.030749
  0
VERTEX
  8
0
 10
713.825122
 20
267.486174
 42
-0.042390
  0
VERTEX
  8
0
 10
721.387137
 20
261.890431
 42
-0.048988
  0
VERTEX
  8
0
 10
724.951259
 20
258.073122
 42
-0.030728
  0
VERTEX
  8
0
 10
728.361573
 20
252.999255
 42
-0.029168
  0
VERTEX
  8
0
 10
731.334112
 20
247.176588
 42
-0.029761
  0
VERTEX
  8
0
 10
733.586372
 20
241.085972
 42
-0.044731
  0
VERTEX
  8
0
 10
734.547624
 20
236.469535
 42
-0.024100
  0
VERTEX
  8
0
 10
734.941052
 20
230.666890
 42
-0.023527
  0
VERTEX
  8
0
 10
734.787574
 20
225.095203
 42
-0.072310
  0
VERTEX
  8
0
 10
733.970023
 20
221.421155
 42
-0.060143
  0
VERTEX
  8
0
 10
731.878902
 20
217.438226
 42
-0.046809
  0
VERTEX
  8
0
 10
728.735891
 20
213.685101
 42
-0.043082
  0
VERTEX
  8
0
 10
724.662202
 20
210.295592
 42
-0.035353
  0
VERTEX
  8
0
 10
719.796936
 20
207.397739
 42
-0.040136
  0
VERTEX
  8
0
 10
710.423459
 20
203.585334
 42
-0.019115
  0
VERTEX
  8
0
 10
697.858857
 20
200.137268
 42
-0.010272
  0
VERTEX
  8
0
 10
685.441754
 20
197.502801
 42
-0.310910
  0
VERTEX
  8
0
 10
682.672614
 20
198.720705
 42
-0.064010
  0
VERTEX
  8
0
 10
682.339029
 20
199.456345
 42
-0.001851
  0
VERTEX
  8
0
 10
681.342366
 20
202.745946
 42
-0.003708
  0
VERTEX
  8
0
 10
680.210450
 20
206.637333
 42
-0.002542
  0
VERTEX
  8
0
 10
678.981166
 20
211.069266
 42
0.008832
  0
VERTEX
  8
0
 10
677.584500
 20
215.869380
 42
0.007540
  0
VERTEX
  8
0
 10
675.947305
 20
220.878621
 42
0.007615
  0
VERTEX
  8
0
 10
674.320202
 20
225.389210
 42
0.021350
  0
VERTEX
  8
0
 10
672.999806
 20
228.476669
 42
0.063840
  0
VERTEX
  8
0
 10
668.241174
 20
235.830608
 42
0.047924
  0
VERTEX
  8
0
 10
661.334632
 20
242.570565
 42
0.049812
  0
VERTEX
  8
0
 10
653.858225
 20
247.446210
 42
0.120157
  0
VERTEX
  8
0
 10
647.485919
 20
249.000000
 42
0.087515
  0
VERTEX
  8
0
 10
644.348012
 20
248.446530
 42
0.086642
  0
VERTEX
  8
0
 10
641.576569
 20
246.852244
 42
0.093583
  0
VERTEX
  8
0
 10
639.671165
 20
244.540289
 42
0.126334
  0
VERTEX
  8
0
 10
639.000000
 20
241.926377
 42
0.084543
  0
VERTEX
  8
0
 10
639.289348
 20
240.227364
 42
0.081305
  0
VERTEX
  8
0
 10
640.126130
 20
238.694271
 42
0.049724
  0
VERTEX
  8
0
 10
641.767943
 20
236.971157
 42
0.012476
  0
VERTEX
  8
0
 10
644.776785
 20
234.511836
 42
-0.015501
  0
VERTEX
  8
0
 10
647.118256
 20
232.574250
 42
-0.014722
  0
VERTEX
  8
0
 10
649.376937
 20
230.462749
 42
-0.014849
  0
VERTEX
  8
0
 10
651.262157
 20
228.478954
 42
-0.049206
  0
VERTEX
  8
0
 10
652.324798
 20
227.027308
 42
-0.037964
  0
VERTEX
  8
0
 10
654.716459
 20
222.171669
 42
-0.020458
  0
VERTEX
  8
0
 10
656.947659
 20
215.881599
 42
-0.020360
  0
VERTEX
  8
0
 10
658.689297
 20
209.314746
 42
-0.032443
  0
VERTEX
  8
0
 10
659.578223
 20
203.575773
 42
-0.008319
  0
VERTEX
  8
0
 10
659.891358
 20
199.244496
 42
-0.062826
  0
VERTEX
  8
0
 10
659.748233
 20
197.201856
 42
-0.109172
  0
VERTEX
  8
0
 10
659.115041
 20
195.756583
 42
-0.047773
  0
VERTEX
  8
0
 10
657.718840
 20
194.183445
 42
-0.099927
  0
VERTEX
  8
0
 10
655.498036
 20
192.821095
 42
-0.053561
  0
VERTEX
  8
0
 10
652.364202
 20
192.040769
 42
-0.020032
  0
VERTEX
  8
0
 10
646.794408
 20
191.499025
 42
-0.001823
  0
VERTEX
  8
0
 10
632.864704
 20
190.756498
 42
-0.004833
  0
VERTEX
  8
0
 10
620.008387
 20
190.242723
 42
-0.010724
  0
VERTEX
  8
0
 10
610.202743
 20
190.156170
 42
-0.010319
  0
VERTEX
  8
0
 10
600.175286
 20
190.489803
 42
-0.004159
  0
VERTEX
  8
0
 10
586.500000
 20
191.341719
 42
0.002418
  0
VERTEX
  8
0
 10
576.651559
 20
191.989660
 42
0.002500
  0
VERTEX
  8
0
 10
566.906250
 20
192.534587
 42
0.002412
  0
VERTEX
  8
0
 10
558.461670
 20
192.923597
 42
0.010743
  0
VERTEX
  8
0
 10
553.500000
 20
193.021473
 42
-0.013926
  0
VERTEX
  8
0
 10
542.470021
 20
193.309294
 42
-0.002885
  0
VERTEX
  8
0
 10
523.097801
 20
194.467372
 42
-0.002776
  0
VERTEX
  8
0
 10
503.769548
 20
195.842585
 42
-0.015703
  0
VERTEX
  8
0
 10
493.500000
 20
196.955879
 42
0.005122
  0
VERTEX
  8
0
 10
490.022080
 20
197.407549
 42
0.001964
  0
VERTEX
  8
0
 10
485.178125
 20
197.966935
 42
0.001945
  0
VERTEX
  8
0
 10
479.915796
 20
198.532979
 42
0.002391
  0
VERTEX
  8
0
 10
475.000000
 20
199.018661
 42
-0.003162
  0
VERTEX
  8
0
 10
470.230471
 20
199.497314
 42
-0.003049
  0
VERTEX
  8
0
 10
465.409375
 20
200.041716
 42
-0.003015
  0
VERTEX
  8
0
 10
461.168657
 20
200.572743
 42
-0.011122
  0
VERTEX
  8
0
 10
458.500000
 20
200.983839
 42
0.001502
  0
VERTEX
  8
0
 10
456.123350
 20
201.396906
 42
0.000713
  0
VERTEX
  8
0
 10
453.059375
 20
201.915462
 42
0.000706
  0
VERTEX
  8
0
 10
449.853713
 20
202.448642
 42
0.001002
  0
VERTEX
  8
0
 10
447.000000
 20
202.913271
 42
-0.002083
  0
VERTEX
  8
0
 10
413.140484
 20
208.501310
 42
-0.009182
  0
VERTEX
  8
0
 10
393.261387
 20
212.243908
 42
-0.011152
  0
VERTEX
  8
0
 10
380.433831
 20
215.203517
 42
-0.120171
  0
VERTEX
  8
0
 10
375.763495
 20
217.684143
 42
-0.067074
  0
VERTEX
  8
0
 10
373.463577
 20
220.363175
 42
-0.075940
  0
VERTEX
  8
0
 10
372.071292
 20
223.448803
 42
-0.072624
  0
VERTEX
  8
0
 10
371.626479
 20
226.924652
 42
-0.054681
  0
VERTEX
  8
0
 10
372.114987
 20
230.751461
 42
-0.035020
  0
VERTEX
  8
0
 10
373.993619
 20
236.693125
 42
-0.026040
  0
VERTEX
  8
0
 10
376.852279
 20
242.954145
 42
-0.026335
  0
VERTEX
  8
0
 10
380.284852
 20
248.772009
 42
-0.040601
  0
VERTEX
  8
0
 10
383.896043
 20
253.359725
 42
-0.066856
  0
VERTEX
  8
0
 10
399.718015
 20
266.398894
 42
-0.054928
  0
VERTEX
  8
0
 10
419.484982
 20
275.850501
 42
-0.050349
  0
VERTEX
  8
0
 10
442.535674
 20
281.385403
 42
-0.040065
  0
VERTEX
  8
0
 10
468.095856
 20
282.791493
 42
0.005761
  0
VERTEX
  8
0
 10
473.952720
 20
282.711776
 42
0.021895
  0
VERTEX
  8
0
 10
477.607396
 20
282.864245
 42
0.034513
  0
VERTEX
  8
0
 10
480.009658
 20
283.238318
 42
0.117821
  0
VERTEX
  8
0
 10
481.418944
 20
283.933102
 42
0.087919
  0
VERTEX
  8
0
 10
483.553400
 20
286.452798
 42
0.031144
  0
VERTEX
  8
0
 10
485.681422
 20
290.692824
 42
0.021678
  0
VERTEX
  8
0
 10
488.028417
 20
296.936863
 42
0.007372
  0
VERTEX
  8
0
 10
490.906819
 20
306.194487
 42
-0.005379
  0
VERTEX
  8
0
 10
494.103204
 20
316.621248
 42
-0.004127
  0
VERTEX
  8
0
 10
497.811507
 20
327.945105
 42
-0.004136
  0
VERTEX
  8
0
 10
501.693927
 20
339.170043
 42
-0.005514
  0
VERTEX
  8
0
 10
505.416350
 20
349.295489
 42
0.043398
  0
VERTEX
  8
0
 10
507.885021
 20
357.992385
 42
0.179402
  0
VERTEX
  8
0
 10
507.001228
 20
363.293862
 42
0.160766
  0
VERTEX
  8
0
 10
502.780223
 20
367.084843
 42
0.033191
  0
VERTEX
  8
0
 10
493.254827
 20
370.525405
 42
-0.025748
  0
VERTEX
  8
0
 10
480.252209
 20
375.004484
 42
-0.028930
  0
VERTEX
  8
0
 10
468.291044
 20
380.651246
 42
-0.031512
  0
VERTEX
  8
0
 10
458.392593
 20
386.883569
 42
-0.066186
  0
VERTEX
  8
0
 10
451.798226
 20
393.114909
 42
-0.027750
  0
VERTEX
  8
0
 10
448.101248
 20
398.227918
 42
-0.048784
  0
VERTEX
  8
0
 10
445.726625
 20
402.867521
 42
-0.046884
  0
VERTEX
  8
0
 10
444.238700
 20
408.005813
 42
-0.023591
  0
VERTEX
  8
0
 10
443.289066
 20
414.696416
 42
-0.017009
  0
VERTEX
  8
0
 10
442.895612
 20
421.267502
 42
-0.043315
  0
VERTEX
  8
0
 10
443.185466
 20
426.030029
 42
-0.069014
  0
VERTEX
  8
0
 10
444.066031
 20
429.033698
 42
-0.295098
  0
VERTEX
  8
0
 10
445.560711
 20
430.000000
 42
-0.089048
  0
VERTEX
  8
0
 10
447.937210
 20
429.573373
 42
-0.022869
  0
VERTEX
  8
0
 10
451.544068
 20
428.044233
 42
-0.020406
  0
VERTEX
  8
0
 10
455.907891
 20
425.730507
 42
-0.012566
  0
VERTEX
  8
0
 10
460.854339
 20
422.674239
 42
0.012235
  0
VERTEX
  8
0
 10
466.970502
 20
418.889636
 42
0.033030
  0
VERTEX
  8
0
 10
471.536982
 20
416.606584
 42
0.038179
  0
VERTEX
  8
0
 10
475.969837
 20
415.131393
 42
0.021634
  0
VERTEX
  8
0
 10
481.516355
 20
413.997387
 42
0.045965
  0
VERTEX
  8
0
 10
491.491467
 20
413.332592
 42
0.055682
  0
VERTEX
  8
0
 10
500.776398
 20
414.608543
 42
0.059112
  0
VERTEX
  8
0
 10
509.084356
 20
417.791773
 42
0.063989
  0
VERTEX
  8
0
 10
516.175146
 20
422.766589
 42
-0.021996
  0
VERTEX
  8
0
 10
518.893301
 20
425.035738
 42
-0.069796
  0
VERTEX
  8
0
 10
520.953070
 20
426.194005
 42
-0.059887
  0
VERTEX
  8
0
 10
523.417565
 20
426.831868
 42
-0.013257
  0
VERTEX
  8
0
 10
527.760968
 20
427.298919
 42
0.063048
  0
VERTEX
  8
0
 10
537.340942
 20
429.306159
 42
0.066711
  0
VERTEX
  8
0
 10
545.921247
 20
433.618248
 42
0.065999
  0
VERTEX
  8
0
 10
553.137099
 20
440.085238
 42
0.059652
  0
VERTEX
  8
0
 10
558.707993
 20
448.421669
 42
0.041334
  0
VERTEX
  8
0
 10
561.146766
 20
454.400133
 42
0.016223
  0
VERTEX
  8
0
 10
563.542487
 20
462.981148
 42
0.016256
  0
VERTEX
  8
0
 10
565.479756
 20
472.191965
 42
0.024220
  0
VERTEX
  8
0
 10
566.517371
 20
480.359465
 42
-0.007934
  0
VERTEX
  8
0
 10
567.302162
 20
488.701262
 42
-0.001848
  0
VERTEX
  8
0
 10
568.893321
 20
502.676391
 42
-0.001933
  0
VERTEX
  8
0
 10
570.605109
 20
516.762332
 42
-0.006430
  0
VERTEX
  8
0
 10
571.884831
 20
526.000000
 42
0.001160
  0
VERTEX
  8
0
 10
575.255661
 20
548.578945
 42
0.012856
  0
VERTEX
  8
0
 10
576.349369
 20
557.636772
 42
0.031531
  0
VERTEX
  8
0
 10
576.506974
 20
562.652108
 42
0.137969
  0
VERTEX
  8
0
 10
575.622502
 20
565.453382
 42
0.127733
  0
VERTEX
  8
0
 10
572.665223
 20
568.135619
 42
0.137792
  0
VERTEX
  8
0
 10
568.862795
 20
568.940978
 42
0.130381
  0
VERTEX
  8
0
 10
565.036649
 20
567.654145
 42
0.108797
  0
VERTEX
  8
0
 10
562.041677
 20
564.567435
 42
0.060693
  0
VERTEX
  8
0
 10
560.124279
 20
560.412304
 42
0.011650
  0
VERTEX
  8
0
 10
557.764035
 20
552.439077
 42
0.010956
  0
VERTEX
  8
0
 10
555.204937
 20
542.097863
 42
0.006246
  0
VERTEX
  8
0
 10
552.543650
 20
529.500000
 42
0.003015
  0
VERTEX
  8
0
 10
550.899705
 20
520.936629
 42
0.009400
  0
VERTEX
  8
0
 10
549.936261
 20
515.144815
 42
0.005804
  0
VERTEX
  8
0
 10
548.978766
 20
508.065094
 42
0.000612
  0
VERTEX
  8
0
 10
546.954486
 20
491.500000
 42
-0.015501
  0
VERTEX
  8
0
 10
544.062153
 20
472.539089
 42
-0.053104
  0
VERTEX
  8
0
 10
540.520616
 20
460.605105
 42
-0.092544
  0
VERTEX
  8
0
 10
535.914111
 20
453.561060
 42
-0.162972
  0
VERTEX
  8
0
 10
529.821919
 20
450.358527
 42
-0.051245
  0
VERTEX
  8
0
 10
527.761457
 20
450.237907
 42
-0.092270
  0
VERTEX
  8
0
 10
526.118216
 20
450.619102
 42
-0.062106
  0
VERTEX
  8
0
 10
524.320502
 20
451.686993
 42
-0.013339
  0
VERTEX
  8
0
 10
521.511804
 20
453.989784
 42
0.013432
  0
VERTEX
  8
0
 10
518.777768
 20
456.230502
 42
0.058464
  0
VERTEX
  8
0
 10
516.987708
 20
457.310583
 42
0.090781
  0
VERTEX
  8
0
 10
515.412287
 20
457.704536
 42
0.063711
  0
VERTEX
  8
0
 10
513.583280
 20
457.588644
 42
0.082907
  0
VERTEX
  8
0
 10
510.882886
 20
456.584632
 42
0.095586
  0
VERTEX
  8
0
 10
508.805588
 20
454.791923
 42
0.082883
  0
VERTEX
  8
0
 10
507.342763
 20
452.132110
 42
0.047181
  0
VERTEX
  8
0
 10
506.456764
 20
448.560246
 42
-0.092468
  0
VERTEX
  8
0
 10
504.020076
 20
441.521324
 42
-0.135062
  0
VERTEX
  8
0
 10
499.403147
 20
436.911549
 42
-0.124372
  0
VERTEX
  8
0
 10
492.765325
 20
435.084128
 42
-0.071944
  0
VERTEX
  8
0
 10
484.500000
 20
436.101428
 42
-0.029676
  0
VERTEX
  8
0
 10
482.796205
 20
436.676348
 42
-0.021847
  0
VERTEX
  8
0
 10
480.983713
 20
437.504215
 42
-0.022219
  0
VERTEX
  8
0
 10
479.333224
 20
438.441731
 42
-0.045089
  0
VERTEX
  8
0
 10
478.146681
 20
439.345851
 42
-0.047065
  0
VERTEX
  8
0
 10
476.909689
 20
440.712902
 42
-0.098015
  0
VERTEX
  8
0
 10
476.292345
 20
442.003973
 42
-0.071453
  0
VERTEX
  8
0
 10
476.109655
 20
443.689633
 42
-0.016508
  0
VERTEX
  8
0
 10
476.303387
 20
446.546130
 42
-0.033657
  0
VERTEX
  8
0
 10
476.738035
 20
449.108632
 42
-0.010800
  0
VERTEX
  8
0
 10
477.719122
 20
452.843075
 42
-0.010720
  0
VERTEX
  8
0
 10
478.993676
 20
456.964158
 42
-0.011793
  0
VERTEX
  8
0
 10
480.406706
 20
460.896482
 42
0.006201
  0
VERTEX
  8
0
 10
481.782871
 20
464.595694
 42
0.008095
  0
VERTEX
  8
0
 10
482.944470
 20
468.014168
 42
0.006232
  0
VERTEX
  8
0
 10
483.831475
 20
470.892772
 42
0.071733
  0
VERTEX
  8
0
 10
484.000000
 20
472.061397
 42
0.194660
  0
VERTEX
  8
0
 10
482.751457
 20
475.146856
 42
0.117129
  0
VERTEX
  8
0
 10
479.375952
 20
477.303678
 42
0.104854
  0
VERTEX
  8
0
 10
475.058173
 20
477.852529
 42
0.132900
  0
VERTEX
  8
0
 10
471.290837
 20
476.491157
 42
0.088108
  0
VERTEX
  8
0
 10
469.064140
 20
474.258317
 42
0.020703
  0
VERTEX
  8
0
 10
466.219914
 20
469.790089
 42
0.021015
  0
VERTEX
  8
0
 10
463.378331
 20
464.377381
 42
0.021023
  0
VERTEX
  8
0
 10
461.001569
 20
458.745913
 42
-0.032123
  0
VERTEX
  8
0
 10
459.202403
 20
454.733818
 42
-0.093686
  0
VERTEX
  8
0
 10
457.319346
 20
452.369653
 42
-0.154777
  0
VERTEX
  8
0
 10
455.297921
 20
451.504863
 42
-0.148204
  0
VERTEX
  8
0
 10
453.107861
 20
451.942274
 42
-0.114735
  0
VERTEX
  8
0
 10
448.913384
 20
455.620142
 42
-0.070416
  0
VERTEX
  8
0
 10
445.852787
 20
461.472448
 42
-0.066872
  0
VERTEX
  8
0
 10
444.413555
 20
468.301503
 42
-0.079661
  0
VERTEX
  8
0
 10
444.970683
 20
474.854086
 42
-0.043487
  0
VERTEX
  8
0
 10
446.752023
 20
480.042415
 42
-0.028986
  0
VERTEX
  8
0
 10
449.631412
 20
485.633124
 42
-0.026332
  0
VERTEX
  8
0
 10
453.485228
 20
491.436396
 42
-0.021059
  0
VERTEX
  8
0
 10
458.211348
 20
497.269188
 42
0.019638
  0
VERTEX
  8
0
 10
461.776209
 20
501.643344
 42
0.041623
  0
VERTEX
  8
0
 10
464.101261
 20
505.340835
 42
0.028665
  0
VERTEX
  8
0
 10
466.255210
 20
510.153414
 42
0.005298
  0
VERTEX
  8
0
 10
469.612900
 20
519.269188
 42
-0.001093
  0
VERTEX
  8
0
 10
471.758623
 20
525.249183
 42
-0.001504
  0
VERTEX
  8
0
 10
473.714925
 20
530.613449
 42
-0.000954
  0
VERTEX
  8
0
 10
475.381814
 20
535.115264
 42
-0.018160
  0
VERTEX
  8
0
 10
475.955622
 20
536.500000
 42
0.011276
  0
VERTEX
  8
0
 10
477.014430
 20
538.958896
 42
0.000759
  0
VERTEX
  8
0
 10
479.868883
 20
546.053195
 42
0.000750
  0
VERTEX
  8
0
 10
484.084830
 20
556.623285
 42
0.000185
  0
VERTEX
  8
0
 10
490.978003
 20
574.000000
 42
-0.001053
  0
VERTEX
  8
0
 10
493.817607
 20
581.122132
 42
-0.000423
  0
VERTEX
  8
0
 10
497.729438
 20
590.850000
 42
-0.000418
  0
VERTEX
  8
0
 10
501.961666
 20
601.323692
 42
-0.000529
  0
VERTEX
  8
0
 10
505.893030
 20
611.000000
 42
0.001732
  0
VERTEX
  8
0
 10
515.083771
 20
633.778315
 42
0.005434
  0
VERTEX
  8
0
 10
521.038857
 20
649.169471
 42
0.007510
  0
VERTEX
  8
0
 10
525.511449
 20
661.682241
 42
0.007258
  0
VERTEX
  8
0
 10
529.659447
 20
674.466142
 42
-0.086908
  0
VERTEX
  8
0
 10
532.545115
 20
680.110356
 42
-0.169029
  0
VERTEX
  8
0
 10
536.699891
 20
682.891660
 42
-0.050212
  0
VERTEX
  8
0
 10
544.853024
 20
684.162918
 42
-0.002488
  0
VERTEX
  8
0
 10
572.000000
 20
685.504012
 42
0.002565
  0
VERTEX
  8
0
 10
576.349999
 20
685.719575
 42
0.002495
  0
VERTEX
  8
0
 10
580.737500
 20
685.981531
 42
0.002460
  0
VERTEX
  8
0
 10
584.591320
 20
686.249981
 42
0.009288
  0
VERTEX
  8
0
 10
587.000000
 20
686.474740
 42
-0.010951
  0
VERTEX
  8
0
 10
589.769696
 20
686.723902
 42
-0.001309
  0
VERTEX
  8
0
 10
595.906250
 20
687.124569
 42
-0.001561
  0
VERTEX
  8
0
 10
603.203888
 20
687.558997
 42
-0.001282
  0
VERTEX
  8
0
 10
611.000000
 20
687.978643
 42
0.000200
  0
VERTEX
  8
0
 10
634.425657
 20
689.188801
 42
0.001238
  0
VERTEX
  8
0
 10
646.471827
 20
689.845842
 42
0.002342
  0
VERTEX
  8
0
 10
654.726567
 20
690.355385
 42
0.002798
  0
VERTEX
  8
0
 10
662.500000
 20
690.915497
 42
0.000966
  0
VERTEX
  8
0
 10
666.378643
 20
691.224342
 42
0.001465
  0
VERTEX
  8
0
 10
669.750270
 20
691.509322
 42
0.000535
  0
VERTEX
  8
0
 10
672.653783
 20
691.766437
 42
0.036712
  0
VERTEX
  8
0
 10
673.139216
 20
691.846163
 42
-0.172853
  0
VERTEX
  8
0
 10
673.501161
 20
691.807598
 42
-0.023706
  0
VERTEX
  8
0
 10
674.179306
 20
691.440748
 42
-0.024937
  0
VERTEX
  8
0
 10
674.968206
 20
690.908936
 42
-0.018717
  0
SEQEND
  0
POLYLINE
  8
0
 66
1
 70
1
  0
VERTEX
  8
0
 10
773.947970
 20
557.065693
 42
-0.016275
  0
VERTEX
  8
0
 10
780.415060
 20
548.330677
 42
-0.019544
  0
VERTEX
  8
0
 10
785.894901
 20
539.699434
 42
-0.021376
  0
VERTEX
  8
0
 10
790.173020
 20
531.558564
 42
-0.035397
  0
VERTEX
  8
0
 10
792.980848
 20
524.326584
 42
-0.048640
  0
VERTEX
  8
0
 10
795.549425
 20
511.807868
 42
-0.063117
  0
VERTEX
  8
0
 10
795.304847
 20
500.107143
 42
-0.071223
  0
VERTEX
  8
0
 10
792.301991
 20
490.013915
 42
-0.093858
  0
VERTEX
  8
0
 10
786.745714
 20
482.207056
 42
-0.014403
  0
VERTEX
  8
0
 10
784.951705
 20
480.581172
 42
-0.071880
  0
VERTEX
  8
0
 10
783.806728
 20
479.856998
 42
-0.161324
  0
VERTEX
  8
0
 10
782.972144
 20
479.772793
 42
-0.169690
  0
VERTEX
  8
0
 10
782.272533
 20
480.207056
 42
-0.136863
  0
VERTEX
  8
0
 10
781.832500
 20
481.227664
 42
-0.005609
  0
VERTEX
  8
0
 10
781.334081
 20
485.232698
 42
-0.009414
  0
VERTEX
  8
0
 10
780.881796
 20
490.042123
 42
-0.006502
  0
VERTEX
  8
0
 10
780.543337
 20
495.500000
 42
0.013496
  0
VERTEX
  8
0
 10
779.632937
 20
507.468471
 42
0.013200
  0
VERTEX
  8
0
 10
778.073644
 20
519.459837
 42
0.012778
  0
VERTEX
  8
0
 10
775.826510
 20
531.720930
 42
0.010959
  0
VERTEX
  8
0
 10
772.851428
 20
544.500000
 42
-0.000839
  0
VERTEX
  8
0
 10
770.063001
 20
555.467250
 42
-0.016100
  0
VERTEX
  8
0
 10
769.311555
 20
558.906660
 42
-0.067562
  0
VERTEX
  8
0
 10
769.235836
 20
560.483422
 42
-0.388974
  0
VERTEX
  8
0
 10
769.799394
 20
561.000000
 42
-0.173640
  0
VERTEX
  8
0
 10
770.363992
 20
560.797830
 42
-0.017800
  0
VERTEX
  8
0
 10
771.443964
 20
559.844297
 42
-0.020530
  0
VERTEX
  8
0
 10
772.679172
 20
558.572607
 42
-0.014986
  0
SEQEND
  0
POLYLINE
  8
0
 66
1
 70
1
  0
VERTEX
  8
0
 10
415.910806
 20
424.607473
 42
-0.120594
  0
VERTEX
  8
0
 10
416.390859
 20
423.620489
 42
-0.041119
  0
VERTEX
  8
0
 10
416.599618
 20
422.029584
 42
-0.030294
  0
VERTEX
  8
0
 10
416.572715
 20
419.840133
 42
-0.012635
  0
VERTEX
  8
0
 10
416.283250
 20
416.899665
 42
0.000000
  0
VERTEX
  8
0
 10
415.500000
 20
410.584384
 42
0.000000
  0
VERTEX
  8
0
 10
409.500000
 20
407.242697
 42
0.015973
  0
VERTEX
  8
0
 10
405.199490
 20
404.664234
 42
0.057899
  0
VERTEX
  8
0
 10
402.739084
 20
402.643006
 42
0.093276
  0
VERTEX
  8
0
 10
401.451037
 20
400.683018
 42
0.099170
  0
VERTEX
  8
0
 10
401.000000
 20
398.431315
 42
0.136548
  0
VERTEX
  8
0
 10
401.622035
 20
396.196061
 42
0.142584
  0
VERTEX
  8
0
 10
403.301958
 20
394.647585
 42
0.082320
  0
VERTEX
  8
0
 10
406.374014
 20
393.706781
 42
0.023357
  0
VERTEX
  8
0
 10
411.369430
 20
393.275097
 42
-0.012176
  0
VERTEX
  8
0
 10
418.469041
 20
392.821190
 42
-0.158627
  0
VERTEX
  8
0
 10
420.870277
 20
391.797943
 42
-0.478350
  0
VERTEX
  8
0
 10
420.813654
 20
390.347646
 42
-0.042805
  0
VERTEX
  8
0
 10
417.250000
 20
388.143784
 42
-0.059976
  0
VERTEX
  8
0
 10
408.705791
 20
385.039486
 42
-0.035446
  0
VERTEX
  8
0
 10
397.975063
 20
383.331720
 42
-0.034078
  0
VERTEX
  8
0
 10
386.475736
 20
383.115130
 42
-0.038905
  0
VERTEX
  8
0
 10
375.562376
 20
384.509373
 42
-0.033257
  0
VERTEX
  8
0
 10
363.259206
 20
387.931972
 42
-0.030150
  0
VERTEX
  8
0
 10
351.094710
 20
393.047803
 42
-0.025459
  0
VERTEX
  8
0
 10
341.200304
 20
398.573072
 42
-0.258167
  0
VERTEX
  8
0
 10
339.000000
 20
402.550446
 42
-0.273031
  0
VERTEX
  8
0
 10
339.960951
 20
404.179048
 42
-0.010416
  0
VERTEX
  8
0
 10
346.440241
 20
407.583829
 42
-0.017348
  0
VERTEX
  8
0
 10
354.175138
 20
411.115356
 42
-0.015099
  0
VERTEX
  8
0
 10
362.500000
 20
414.281371
 42
-0.009383
  0
VERTEX
  8
0
 10
369.186419
 20
416.456108
 42
-0.007929
  0
VERTEX
  8
0
 10
376.334842
 20
418.510359
 42
-0.005128
  0
VERTEX
  8
0
 10
385.957933
 20
421.005683
 42
-0.001330
  0
VERTEX
  8
0
 10
401.500000
 20
424.822302
 42
-0.030008
  0
VERTEX
  8
0
 10
406.047159
 20
425.641032
 42
-0.033276
  0
VERTEX
  8
0
 10
410.504436
 20
425.871322
 42
-0.033290
  0
VERTEX
  8
0
 10
414.203468
 20
425.569323
 42
-0.184568
  0
SEQEND
  0
POLYLINE
  8
0
 66
1
 70
1
  0
VERTEX
  8
0
 10
563.650487
 20
1280.951044
 42
0.074128
  0
VERTEX
  8
0
 10
554.807486
 20
1278.077088
 42
0.047876
  0
VERTEX
  8
0
 10
545.655917
 20
1272.366332
 42
0.046396
  0
VERTEX
  8
0
 10
537.414113
 20
1264.745079
 42
0.055524
  0
VERTEX
  8
0
 10
531.267167
 20
1256.150040
 42
0.015266
  0
VERTEX
  8
0
 10
529.416048
 20
1252.588929
 42
0.036769
  0
VERTEX
  8
0
 10
528.327715
 20
1249.826784
 42
0.043241
  0
VERTEX
  8
0
 10
527.757262
 20
1247.219583
 42
0.029977
  0
VERTEX
  8
0
 10
527.548995
 20
1244.207789
 42
0.016653
  0
VERTEX
  8
0
 10
527.619821
 20
1241.281470
 42
0.062433
  0
VERTEX
  8
0
 10
527.952217
 20
1239.477408
 42
0.088476
  0
VERTEX
  8
0
 10
528.647868
 20
1238.152214
 42
0.057517
  0
VERTEX
  8
0
 10
529.860784
 20
1236.913319
 42
0.127636
  0
VERTEX
  8
0
 10
533.846198
 20
1235.099073
 42
0.181126
  0
VERTEX
  8
0
 10
537.637069
 20
1235.808802
 42
0.110106
  0
VERTEX
  8
0
 10
541.392442
 20
1239.397971
 42
0.033433
  0
VERTEX
  8
0
 10
545.341496
 20
1246.265557
 42
-0.057461
  0
VERTEX
  8
0
 10
548.829412
 20
1251.709468
 42
-0.029887
  0
VERTEX
  8
0
 10
554.301641
 20
1257.650321
 42
-0.029105
  0
VERTEX
  8
0
 10
560.170726
 20
1262.679542
 42
-0.095139
  0
VERTEX
  8
0
 10
564.730618
 20
1264.942068
 42
-0.050037
  0
VERTEX
  8
0
 10
569.591685
 20
1265.780953
 42
-0.023644
  0
VERTEX
  8
0
 10
575.961524
 20
1265.931430
 42
-0.023296
  0
VERTEX
  8
0
 10
582.642483
 20
1265.461362
 42
-0.032330
  0
VERTEX
  8
0
 10
588.544104
 20
1264.378522
 42
0.036077
  0
VERTEX
  8
0
 10
593.709507
 20
1263.470684
 42
0.092679
  0
VERTEX
  8
0
 10
597.473888
 20
1263.783759
 42
0.126500
  0
VERTEX
  8
0
 10
600.160451
 20
1265.320096
 42
0.102093
  0
VERTEX
  8
0
 10
602.033090
 20
1268.079886
 42
0.175712
  0
VERTEX
  8
0
 10
602.215258
 20
1272.141051
 42
0.151940
  0
VERTEX
  8
0
 10
599.778194
 20
1275.668218
 42
0.089022
  0
VERTEX
  8
0
 10
594.402495
 20
1278.515059
 42
0.033241
  0
VERTEX
  8
0
 10
586.082078
 20
1280.577628
 42
0.017270
  0
VERTEX
  8
0
 10
580.039002
 20
1281.441566
 42
0.022709
  0
VERTEX
  8
0
 10
574.479765
 20
1281.786989
 42
0.023705
  0
VERTEX
  8
0
 10
569.112595
 20
1281.621864
 42
0.022025
  0
SEQEND
  0
POLYLINE
  8
0
 66
1
 70
1
  0
VERTEX
  8
0
 10
684.392956
 20
1135.074705
 42
0.100138
  0
VERTEX
  8
0
 10
681.566930
 20
1133.120117
 42
0.041772
  0
VERTEX
  8
0
 10
678.629948
 20
1129.507457
 42
0.037826
  0
VERTEX
  8
0
 10
675.940512
 20
1124.848035
 42
0.033076
  0
VERTEX
  8
0
 10
673.844131
 20
1119.625865
 42
0.020336
  0
VERTEX
  8
0
 10
672.657019
 20
1115.417695
 42
0.028211
  0
VERTEX
  8
0
 10
671.963769
 20
1111.561557
 42
0.022390
  0
VERTEX
  8
0
 10
671.615861
 20
1107.034402
 42
0.007817
  0
VERTEX
  8
0
 10
671.509394
 20
1100.500000
 42
0.005505
  0
VERTEX
  8
0
 10
671.583922
 20
1093.300820
 42
0.033222
  0
VERTEX
  8
0
 10
671.911424
 20
1089.579499
 42
0.053659
  0
VERTEX
  8
0
 10
672.667525
 20
1086.753338
 42
0.029702
  0
VERTEX
  8
0
 10
674.151764
 20
1083.500000
 42
0.042551
  0
VERTEX
  8
0
 10
677.631916
 20
1078.099657
 42
0.081592
  0
VERTEX
  8
0
 10
681.391450
 20
1074.593980
 42
0.088727
  0
VERTEX
  8
0
 10
685.848504
 20
1072.653329
 42
0.058483
  0
VERTEX
  8
0
 10
691.415061
 20
1072.000000
 42
0.117455
  0
VERTEX
  8
0
 10
697.267027
 20
1073.393915
 42
0.095410
  0
VERTEX
  8
0
 10
702.382854
 20
1077.347314
 42
0.078312
  0
VERTEX
  8
0
 10
706.421839
 20
1083.699929
 42
0.049731
  0
VERTEX
  8
0
 10
709.107443
 20
1092.065389
 42
0.030296
  0
VERTEX
  8
0
 10
709.499971
 20
1094.650530
 42
0.010089
  0
VERTEX
  8
0
 10
709.767667
 20
1098.471867
 42
0.010001
  0
VERTEX
  8
0
 10
709.894328
 20
1102.726545
 42
0.011230
  0
VERTEX
  8
0
 10
709.842329
 20
1106.821279
 42
0.010018
  0
VERTEX
  8
0
 10
709.529628
 20
1112.481139
 42
0.036007
  0
VERTEX
  8
0
 10
708.999373
 20
1116.057109
 42
0.042107
  0
VERTEX
  8
0
 10
708.006774
 20
1119.228177
 42
0.017578
  0
VERTEX
  8
0
 10
706.167419
 20
1123.317609
 42
0.018233
  0
VERTEX
  8
0
 10
704.448106
 20
1126.507974
 42
0.030337
  0
VERTEX
  8
0
 10
702.746219
 20
1129.042084
 42
0.035722
  0
VERTEX
  8
0
 10
700.996476
 20
1131.023150
 42
0.047863
  0
VERTEX
  8
0
 10
699.134219
 20
1132.529876
 42
0.061376
  0
VERTEX
  8
0
 10
695.697069
 20
1134.241404
 42
0.042140
  0
VERTEX
  8
0
 10
691.478155
 20
1135.341972
 42
0.043027
  0
VERTEX
  8
0
 10
687.381927
 20
1135.690775
 42
0.101453
  0
SEQEND
  0
POLYLINE
  8
0
 66
1
 70
1
  0
VERTEX
  8
0
 10
602.557521
 20
1130.749792
 42
0.090514
  0
VERTEX
  8
0
 10
598.221808
 20
1128.717420
 42
0.047907
  0
VERTEX
  8
0
 10
593.721832
 20
1124.813321
 42
0.045726
  0
VERTEX
  8
0
 10
589.766909
 20
1119.811626
 42
0.054196
  0
VERTEX
  8
0
 10
587.042939
 20
1114.440889
 42
0.032795
  0
VERTEX
  8
0
 10
582.838713
 20
1100.631353
 42
0.052423
  0
VERTEX
  8
0
 10
581.300262
 20
1088.408809
 42
0.061270
  0
VERTEX
  8
0
 10
582.402444
 20
1077.632774
 42
0.073784
  0
VERTEX
  8
0
 10
586.095774
 20
1068.155945
 42
0.043023
  0
VERTEX
  8
0
 10
588.672213
 20
1064.429366
 42
0.078286
  0
VERTEX
  8
0
 10
591.439461
 20
1061.984417
 42
0.074063
  0
VERTEX
  8
0
 10
594.932582
 20
1060.426448
 42
0.034962
  0
VERTEX
  8
0
 10
599.780649
 20
1059.434710
 42
0.020125
  0
VERTEX
  8
0
 10
602.609830
 20
1059.174716
 42
0.056652
  0
VERTEX
  8
0
 10
604.590035
 20
1059.297225
 42
0.063742
  0
VERTEX
  8
0
 10
606.357581
 20
1059.848420
 42
0.031004
  0
VERTEX
  8
0
 10
608.445877
 20
1060.966550
 42
0.121525
  0
VERTEX
  8
0
 10
614.336322
 20
1066.976474
 42
0.050969
  0
VERTEX
  8
0
 10
619.107982
 20
1077.335799
 42
0.044998
  0
VERTEX
  8
0
 10
622.286277
 20
1090.331174
 42
0.037609
  0
VERTEX
  8
0
 10
623.347308
 20
1104.500000
 42
0.009091
  0
VERTEX
  8
0
 10
623.245989
 20
1109.941020
 42
0.028246
  0
VERTEX
  8
0
 10
622.904346
 20
1113.592993
 42
0.037297
  0
VERTEX
  8
0
 10
622.219921
 20
1116.592814
 42
0.028299
  0
VERTEX
  8
0
 10
621.045192
 20
1119.757279
 42
0.047200
  0
VERTEX
  8
0
 10
618.899824
 20
1123.625568
 42
0.037634
  0
VERTEX
  8
0
 10
615.913651
 20
1127.349170
 42
0.036978
  0
VERTEX
  8
0
 10
612.820098
 20
1130.206408
 42
0.169543
  0
VERTEX
  8
0
 10
610.546991
 20
1131.000000
 42
-0.022644
  0
VERTEX
  8
0
 10
609.920791
 20
1131.028373
 42
-0.013446
  0
VERTEX
  8
0
 10
609.178741
 20
1131.115929
 42
-0.013443
  0
VERTEX
  8
0
 10
608.441935
 20
1131.243334
 42
-0.022499
  0
VERTEX
  8
0
 10
607.831787
 20
1131.394652
 42
0.085105
  0
VERTEX
  8
0
 10
607.075441
 20
1131.484538
 42
0.017539
  0
VERTEX
  8
0
 10
605.733110
 20
1131.368018
 42
0.017973
  0
VERTEX
  8
0
 10
604.164553
 20
1131.118741
 42
0.016066
  0
SEQEND
  0
POLYLINE
  8
0
 66
1
 70
1
  0
VERTEX
  8
0
 10
836.000000
 20
1035.068112
 42
0.023220
  0
VERTEX
  8
0
 10
833.706406
 20
1034.528715
 42
0.007365
  0
VERTEX
  8
0
 10
830.340915
 20
1033.516561
 42
0.007335
  0
VERTEX
  8
0
 10
826.617767
 20
1032.276381
 42
0.008098
  0
VERTEX
  8
0
 10
823.054178
 20
1030.965842
 42
0.037070
  0
VERTEX
  8
0
 10
816.394613
 20
1027.808584
 42
0.050510
  0
VERTEX
  8
0
 10
810.980817
 20
1023.961991
 42
0.050779
  0
VERTEX
  8
0
 10
806.469196
 20
1019.125331
 42
0.038026
  0
VERTEX
  8
0
 10
802.515717
 20
1013.000000
 42
0.021624
  0
VERTEX
  8
0
 10
800.883383
 20
1009.654188
 42
0.050125
  0
VERTEX
  8
0
 10
800.030838
 20
1006.997209
 42
0.041466
  0
VERTEX
  8
0
 10
799.638152
 20
1003.932610
 42
0.011007
  0
VERTEX
  8
0
 10
799.526940
 20
999.000000
 42
0.011511
  0
VERTEX
  8
0
 10
799.629249
 20
994.451947
 42
0.031567
  0
VERTEX
  8
0
 10
799.977334
 20
991.260090
 42
0.040005
  0
VERTEX
  8
0
 10
800.662228
 20
988.596779
 42
0.031038
  0
VERTEX
  8
0
 10
801.810976
 20
985.831499
 42
0.069561
  0
VERTEX
  8
0
 10
806.094283
 20
979.498585
 42
0.057374
  0
VERTEX
  8
0
 10
812.215200
 20
974.101956
 42
0.049241
  0
VERTEX
  8
0
 10
820.306563
 20
969.580523
 42
0.030897
  0
VERTEX
  8
0
 10
830.500000
 20
965.866599
 42
0.018625
  0
VERTEX
  8
0
 10
835.450663
 20
964.600500
 42
0.029211
  0
VERTEX
  8
0
 10
839.790219
 20
963.923650
 42
0.020654
  0
VERTEX
  8
0
 10
845.133524
 20
963.629384
 42
0.004978
  0
VERTEX
  8
0
 10
854.000000
 20
963.596066
 42
0.030910
  0
VERTEX
  8
0
 10
874.139719
 20
964.967635
 42
0.060847
  0
VERTEX
  8
0
 10
889.659325
 20
968.952641
 42
0.079419
  0
VERTEX
  8
0
 10
900.890263
 20
975.554066
 42
0.107897
  0
VERTEX
  8
0
 10
908.132494
 20
984.772072
 42
0.064803
  0
VERTEX
  8
0
 10
909.998896
 20
990.375029
 42
0.051249
  0
VERTEX
  8
0
 10
910.571654
 20
996.742068
 42
0.050233
  0
VERTEX
  8
0
 10
909.834791
 20
1003.230858
 42
0.056007
  0
VERTEX
  8
0
 10
907.822440
 20
1009.196212
 42
0.072357
  0
VERTEX
  8
0
 10
902.794609
 20
1016.841767
 42
0.050517
  0
VERTEX
  8
0
 10
895.187302
 20
1023.839393
 42
0.047637
  0
VERTEX
  8
0
 10
885.789427
 20
1029.569358
 42
0.046929
  0
VERTEX
  8
0
 10
875.430459
 20
1033.451189
 42
0.046363
  0
VERTEX
  8
0
 10
868.357171
 20
1034.680553
 42
0.009610
  0
VERTEX
  8
0
 10
855.742576
 20
1035.440924
 42
0.009582
  0
VERTEX
  8
0
 10
843.110726
 20
1035.716593
 42
0.046835
  0
SEQEND
  0
ENDSEC
  0
EOF
